<?xml version="1.0" encoding="UTF-8"?>
<svg version="1.1" viewBox="0 0 794 1141" xmlns="http://www.w3.org/2000/svg" xmlns:xlink="http://www.w3.org/1999/xlink">
<title>bib-michelin-man copy</title>
<desc>Created with Sketch.</desc>
<defs>
<polygon id="a" points="0.06 0.7 793.2 0.7 793.2 1140.9 0.06 1140.9"/>
</defs>
<g fill="none" fill-rule="evenodd">
<mask id="b" fill="white">
<use xlink:href="#a"/>
</mask>
<path d="m788.98 566.22s3.824-15.445-6.495-32.466c-14.079-23.226-41.398-51.138-41.398-51.138 0-1e-3 0.155-4.898-1.623-8.118-1.511-2.734-4.059-4.871-4.059-4.871s10.003-20.307 0.812-40.585c-7.607-16.781-25.974-24.352-25.974-24.352s-0.715-13.621-10.552-29.22c-8.303-13.167-21.916-20.293-21.916-20.293s-1.505-7.047-4.872-12.988c-3.529-6.228-8.926-11.364-8.926-11.364s1.441-19.483-6.494-38.149c-7.908-18.592-19.482-24.352-19.482-24.352s4.169-31.16-19.48-57.631c-26.748-29.937-57.631-28.409-57.631-28.409s-13.835-3.993-27.599-6.493c-13-2.365-25.974-3.248-25.974-3.248s17.268-8.197 14.611-43.02c-2.03-26.556-26.787-42.21-26.787-42.21s0.211-21.676-18.669-47.078c-14.758-19.856-34.904-24.35-34.904-24.35s-9.168-18.658-34.904-14.612c-25.225 3.965-30.845 21.917-30.845 21.917s-20.002 12.639-29.22 33.279c-9.449 21.158-8.118 48.702-8.118 48.702s-19.283 19.057-17.858 44.643c1.201 21.549 23.539 40.586 23.539 40.586s-9.975 2.554-19.48 7.307c-10.716 5.357-21.105 12.986-21.105 12.986s-12.492-5.985-30.032-4.058c-15.421 1.693-29.222 10.551-29.222 10.551s-15.7-3.822-27.598-3.247c-13.198 0.64-20.293 4.87-20.293 4.87l-8.116-0.811s-5.237-15.171-12.987-24.351c-7.674-9.085-17.857-12.175-17.857-12.175s-4.818-15.772-14.613-25.975c-9.684-10.088-24.349-14.61-24.349-14.61s-0.44-2.897-1.625-4.87c-1.249-2.084-3.246-3.248-3.246-3.248s5.871-6.977 8.116-17.046c2.055-9.211 0.479-22.297 0.812-24.35 0.695-4.299 18.469-23.542 0.813-33.28-2.027-1.118-10.129-3.688-18.671 1.622-6.026 3.747-8.713 11.85-10.553 17.045-0.542 1.536-3.064-2.295-4.056-4.056-0.792-1.403-13.835-32.959-32.469-51.137-11.762-11.476-21.106-3.247-21.106-3.247s-5.789-4.538-13.797-2.435c-5.473 1.436-8.119 7.305-8.119 7.305s-7.255 2.924-9.739 8.927c-2.385 5.761 0 14.611 0 14.611s-9.768 5.926-1.625 37.339c9.692 37.379 41.399 78.735 41.399 78.735s-0.812 1.939-0.812 4.058c0 2.336 0.812 4.871 0.812 4.871s-12.02 13.564-8.93 36.527c2.524 18.745 17.857 34.091 17.857 34.091s0.278 30.621 20.294 49.514c19.909 18.797 38.962 19.482 38.962 19.482s5.271 19.517 21.103 31.656c13.62 10.44 30.846 11.364 30.846 11.364s14.283 20.843 41.397 25.976c23.369 4.422 41.396-2.437 41.396-2.437s7.139 3.323 14.612 5.683c7.935 2.507 16.234 4.057 16.234 4.057s-3.089 18.819 0 36.528c2.998 17.185 12.176 33.28 12.176 33.28s-11.502 21.673-14.612 43.02c-2.975 20.434 2.436 40.585 2.436 40.585s-17.144 29.331-22.727 56.82c-4.929 24.258 1.622 47.079 1.622 47.079s-10.72 15.728-13.798 32.469c-3.401 18.483 0.811 38.151 0.811 38.151s-14.792 11.343-20.294 26.785c-5.031 14.128-0.81 32.468-0.81 32.468s-12.95 19.785-17.046 38.962c-4.97 23.27 3.248 37.34 3.248 37.34s-17.898 20.291-17.858 51.949c0.03 24.824 14.61 44.644 14.61 44.644s-3.842 10.021-7.305 21.103c-2.692 8.618-5.176 18.221-9.741 30.848-6.525 18.054-16.581 38.324-19.48 58.444-6.039 41.88 4.955 80.76 36.526 82.79 29.307 1.88 50.541-28.27 59.256-62.5 4.965-19.51 0-39.76 4.868-57.63 6.982-25.63 12.989-47.082 12.989-47.082s26.888-11.841 40.585-34.092c16.419-26.672 9.74-55.196 9.74-55.196s14.996-13.746 21.104-29.221c6.066-15.37 3.248-32.467 3.248-32.467s12.81-9.528 17.856-22.728c5.487-14.352 3.248-32.47 3.248-32.47s15.749-8.789 25.974-30.031c11.383-23.652 10.552-44.644 10.552-44.644l6.494-6.494s1.201 21.321 6.493 38.961c5.654 18.847 15.423 34.091 15.423 34.091s-5.272 11.662-5.682 22.729c-0.403 10.848 4.059 21.104 4.059 21.104s-13.796 12.2-15.423 40.585c-1.159 20.23 8.116 39.773 8.116 39.773s-15.464 23.716-8.116 60.067c6.253 30.936 25.995 43.435 25.976 44.645-0.091 5.58-2.475 12.89-8.118 29.22-4.912 14.22-13.612 30.21-17.046 43.84-3.095 12.27-0.812 25.97-0.812 25.97s-2.892 7.79 1.623 16.23c7.342 13.73 38.865 13.44 96.593 12.99 54.355-0.43 111.96 9.99 131.5-6.49 7.895-6.66 1.625-23.54 1.625-23.54 0.024 0.02-0.161-12.58-16.234-20.3-20.948-10.04-52.838-12.4-79.548-25.97-29.025-14.75-26.786-41.397-26.786-41.397s28.63-10.738 39.773-38.963c18.004-45.599-0.811-72.243-0.811-72.243s10.257-14.936 12.175-34.092c2.684-26.819-5.681-43.832-5.681-43.832s9.79-12.039 10.551-25.972c1-18.267-8.116-29.222-8.116-29.222s10.056-7.952 16.233-38.151c8.182-39.995-0.812-61.691-0.812-61.691s10.229-26.651 10.553-53.571c0.395-32.613-14.609-52.762-14.609-52.762s10.313-7.859 12.986-34.903c2.714-27.463-6.493-43.833-6.493-43.833s6.28 5.51 12.986 8.118c7.819 3.042 16.234 3.246 16.234 3.246s6.04 15.55 24.352 25.975c19.253 10.961 32.468 6.494 32.468 6.494s3.093 4.541 6.494 7.304c3.075 2.5 6.493 3.248 6.493 3.248s1.741 6.931 1.623 15.422c-0.087 6.246-2.181 12.968-1.623 20.292 0.609 7.993 2.557 14.803 4.059 21.105 5.221 21.924 6.354 26.912 21.917 26.788 10.989-0.091 12.986-8.931 12.986-8.931s3.494 2.458 6.494 4.059c3.086 1.645 5.682 2.435 5.682 2.435s1.491 2.944 4.058 4.871c2.286 1.714 5.682 2.436 5.682 2.436s11.978 9.585 23.54 1.622c15.866-10.928 4.06-47.891 4.06-47.891" fill="#010000" mask="url(#b)"/>
<path d="m547.9 1045.9c-23.007-17.17-25.264-41.11-25.972-42.21-0.71-1.1-15.004 0.21-29.222-1.62-14.191-1.827-25.62-6.682-27.598-5.684-1.978 1.002-3.426 16.404-11.364 32.464-11.082 22.44-19.093 43.15-14.611 52.77 1.954 4.19 14.906 7.62 34.092 8.93 14.161 0.96 31.856 0.16 50.325 0.81 21.42 0.74 43.352 3.1 63.313 3.24 32.312 0.23 58.225-2.46 59.256-5.68 5.582-17.46-67.604-20.17-98.219-43.02" fill="#fff"/>
<path d="m565.27 897.81c-0.588-0.323-17.148 9.946-64.448 10.955-43.141 0.918-55.365-12.397-56.819-11.364-1.454 1.03-13.76 20.332 0 58.442 17.275 47.849 98.475 39.542 115.26 8.117 20.322-38.038 8.023-65.038 6.005-66.15" fill="#fff"/>
<path d="m570.62 815.42c-1.556-1.054-33.599 5.482-61.689 4.058-28.098-1.421-52.311-8.933-54.384-8.115-14.805 5.839-20.838 58.884-4.058 73.865 9.295 8.297 34.9 11.461 52.76 11.365 29.685-0.163 54.142-6.914 59.255-13.801 18.604-25.057 9.675-66.317 8.116-67.372" fill="#fff"/>
<path d="m572.25 761.03s-24.766 8.836-58.444 8.116c-28.558-0.609-56.516-5.581-57.63-4.87-2.241 1.428-4.658 9.563-4.871 18.671-0.192 8.306 2.163 14.318 4.059 16.232 1.896 1.915 30.315 8.701 60.067 9.741 28.247 0.987 52.569-4.1 54.383-5.682 1.814-1.583 8.726-9.701 8.93-20.291 0.202-10.513-6.494-21.917-6.494-21.917" fill="#fff"/>
<path d="m589.3 667.68c-1.829-0.437-35.109 12.634-71.431 13.801-39.443 1.266-75.517-8.058-80.358-8.931-2.821-0.504-0.763 63.202 17.045 77.115 11.224 8.766 109.1 12.667 121.76-5.682 22.495-32.608 14.171-76.018 12.988-76.303" fill="#fff"/>
<path d="m581.99 555.67s-15.923 4.826-38.148 13.798c-17.188 6.938-36.211 17.611-59.256 23.539-25.806 6.639-36.525 4.87-36.525 4.87s1.232 15.703-0.812 30.844c-2.013 14.889-7.308 29.224-7.308 29.224s18.82 13.196 64.127 12.175c53.888-1.219 77.239-12.217 78.734-15.424 31.083-66.571-0.812-99.026-0.812-99.026" fill="#fff"/>
<path d="m435.07 597.88c-0.396-1.067-35.615-1.646-78.733-13.797-41.257-11.629-66.189-32.577-68.184-31.658-3.979 1.832-33.749 59.49-15.423 93.345 18.327 33.855 99.87 58.665 133.12 36.528 33.253-22.14 30.946-79.79 29.221-84.418" fill="#fff"/>
<path d="m400.98 699.34c-0.469-0.935-26.788 10.526-73.866-2.436-42.28-11.642-61.424-37.306-62.501-36.526-2.765 2.004-16.473 22.784-1.623 60.067 14.692 36.884 77.139 59.066 110.39 35.714 27.319-19.187 29.088-53.854 27.597-56.819" fill="#fff"/>
<path d="m366.89 774.83c-1.035-1.005-29.24 12.176-68.995-4.87-32.618-13.984-45.699-42.174-47.078-41.398-1.379 0.778-21.979 13.069-13.798 45.456 9.072 35.916 83.486 50.245 108.77 39.774 22.039-9.127 22.999-37.124 21.103-38.962" fill="#fff"/>
<path d="m345.78 827.59c-0.432-0.636-29.397 7.37-66.56-4.057-34.85-10.719-48.796-34.199-50.327-33.281-1.53 0.919-18.32 27.87-4.871 59.254 14.434 33.681 68.311 44.602 100.65 24.353 24.418-15.29 22.478-44.251 21.105-46.269" fill="#fff"/>
<path d="m323.06 891.72c-1.63-1.312-30.184 10.734-61.691 2.433-30.815-8.119-42.578-28.711-43.833-29.222-2.117-0.862-20.986 20.155-10.553 56.82 11.522 40.472 61.244 53.981 94.16 25.976 24.008-20.429 23.88-54.43 21.917-56.007" fill="#fff"/>
<path d="m266.24 976.14c-0.487-1.366-14.171 0.06-25.165-3.248-11.757-3.54-20.891-11.764-21.916-11.365-1.325 0.517-1.588 10.749-2.434 12.988-0.846 2.238-3.491 1.784-4.059 0.811-0.566-0.972-0.594-3.465-1.623-3.246-1.028 0.219-30.463 64.835-30.032 89.295 0.431 24.44 9.089 52.76 25.972 56.81 22.046 5.29 49.454-28.02 51.139-51.13 1.687-23.12 3.686-70.779 4.87-77.118 1.184-6.338 4.251-10.978 3.248-13.797" fill="#fff"/>
<path d="m221.59 1059.7c-11.39-0.66-30.018-2.23-30.033 3.25-0.017 5.48 12.333 2.63 26.785 4.06 13.053 1.28 28.358 3.93 28.41 1.62 0.06-2.68-13.775-8.27-25.162-8.93" fill="#010000"/>
<path d="m584.42 469.63c-2.189-0.282-38.032 41.606-140.43 42.21-100.01 0.588-140.79-42.23-142.86-41.397-2.073 0.831-9.436 16.469-11.364 34.904-1.711 16.341-3e-3 28.798 4.059 34.903 4.06 6.103 42.619 36.711 130.68 43.833 40.794 3.297 63.767-3.737 105.52-23.542 33.73-15.997 53.573-18.669 53.573-18.669s10.344-17.272 10.551-35.714c0.199-17.662-7.552-36.246-9.739-36.528" fill="#fff"/>
<path d="m585.24 382.78c-0.463-0.118-47.048 40.424-144.48 41.398-92.942 0.928-146.2-38.911-147.73-36.528-1.526 2.386-12.04 54.089 26.787 80.36 67.188 45.46 215.76 33.065 254.06-6.493 35.203-36.354 11.827-78.616 11.364-78.737" fill="#fff"/>
<path d="m589.3 277.26s-44.34 36.964-123.38 42.207c-67.027 4.446-123.38-5.683-123.38-5.683s-5.202 19.921-13.798 35.716c-8.852 16.259-21.404 27.15-21.105 28.409 0.3 1.262 39.274 33.825 146.11 32.469 88.793-1.126 135.46-45.434 144.48-62.502 19.168-36.241-8.929-70.616-8.929-70.616" fill="#fff"/>
<path d="m592.54 239.1c-10.399-57.572-99.027-51.947-99.027-51.947s-3.653 5.357-8.118 9.738c-3.586 3.522-8.045 6.214-8.928 6.496-1.983 0.632-2.762-0.418-1.625-2.437 0.51-0.901 2.921-2.96 4.87-5.682 2.411-3.364 4.361-7.449 4.059-8.115-0.543-1.21-9.921 0.875-11.363 0.81-1.442-0.064-2.417-0.423-0.812-1.621 1.606-1.203 36.517-17.934 38.151-46.27 1.541-26.753-31.735-49.931-31.657-51.138 0.077-1.205 3.247-1.623 3.247-1.623s-1.899-25.173-19.482-44.644c-19.584-21.683-35.511-20.263-36.525-20.291-1.145-0.035-1.457-0.588-0.602-1.261 0.929-0.734 5.144-0.762 5.472-1.175 0.324-0.412-5.174-8.775-19.482-7.305-14.579 1.498-20.668 10.213-20.292 10.553 0.375 0.338 4.479-0.233 5.682 0 1.201 0.232 1.91 1.672 0 2.433-1.911 0.765-21.182 7.174-34.905 30.846-10.63 18.337-11.47 43.714-8.928 46.267 2.542 2.551 5.079-0.032 8.237-1.112 5.295-1.813 4.294 1.048 2.316 1.924-0.693 0.307-31.031 15.397-25.975 49.515 4.782 32.273 39.133 40.9 40.584 41.396 1.454 0.498 2.389 2.552 0.812 3.248-1.575 0.693-3.218 0.622-5.682 0.811-2.792 0.215-5.682 0-5.682 0s2.851 3.82 6.495 6.493c3.709 2.723 8.218 4.305 8.928 4.872 0.966 0.77 0.691 2.644-1.622 2.433-2.315-0.211-7.051-0.585-12.988-3.245-5.832-2.616-10.552-7.307-10.552-7.307s-10.976 3.157-21.105 8.119c-9.752 4.775-18.668 11.364-18.668 11.364s12.904 16.389 19.48 35.713c6.814 20.031 7.304 43.022 7.304 43.022s44.747 11.25 116.08 5.682c78.136-6.102 137.66-36.945 132.31-66.562" fill="#fff"/>
<path d="m305.2 226.93c-16.137-14.556-44.347-4.938-42.21-1.625 0.969 1.501 25.971 17.067 27.599 74.679 1.396 49.458-23.979 61.436-25.162 67.37-0.668 3.337 19.52 7.96 30.844 1.625 19.004-10.639 32.019-37.609 34.903-65.75 3.86-37.664-14.069-65.562-25.974-76.299" fill="#fff"/>
<path d="m263.8 244.79c-21.519-25.917-52.954-18.528-51.138-16.234 1.818 2.294 28.818 26.56 17.858 68.995-11.404 44.144-51.067 52.965-51.95 55.196-0.88 2.231 23.52 24.426 56.82 16.235 52.616-12.946 52.635-95.014 28.41-124.19" fill="#fff"/>
<path d="m219.16 260.21c-12.009-31.237-29.221-29.224-29.221-29.224 0-1e-3 4.096 26.31-21.103 55.196-16.027 18.372-44.4 22.717-44.643 24.352-1.527 10.23 23.969 30.791 35.191 31.057 48.503 1.146 70.512-53.467 59.776-81.381" fill="#fff"/>
<path d="m157.47 194.46s-0.825 27.592-33.28 46.266c-27.76 15.973-58.445 8.12-58.445 8.12s5.372 33.053 28.409 43.831c45.346 21.21 82.096-22.326 83.607-47.891 2.254-38.142-19.892-50.246-20.291-50.326" fill="#fff"/>
<path d="m117.69 152.25c-1.121 0.464-1.006 3.166-3.247 6.493-1.582 2.348-3.575 4.739-4.362 5.279-1.387 0.946-3.276 1.302-2.942-1.222 0.327-2.484 7.48-21.927-2.437-23.54-1.646-0.267-4.537 3.924-5.682 4.059-1.143 0.137-2.212 0.05-2.434-1.622-0.106-0.801 2.707-3.775 5.682-8.118 3.25-4.744 6.748-11.022 8.116-15.422 2.626-8.428 2.415-23.756 4.059-30.034 1.645-6.279 9.1-17.3 7.305-19.48-6.879-8.362-15.37 0.176-17.857 6.493-2.245 5.7-0.506 14.882-7.305 22.728-3.397 3.917-7.868 4.72-9.741 3.247-1.621-1.275 4.001-6.568 3.661-9.805-0.34-3.241-8.642-15.35-16.648-31.593-4.444-9.016-11.605-18.693-16.234-25.162-9.647-13.479-17.143-9.168-17.046-6.492 0.02 0.531 4.115 6.068 8.116 12.986 4.529 7.825 9.22 17.418 12.989 23.539 2.13 3.465 3.459 2.821 4.871 4.059 1.409 1.236 2.397 4.956 1.622 5.682-0.775 0.723-4.608 0.077-5.682-0.812-1.074-0.89-2.393-2.948-5.682-8.929-6.194-11.261-15.989-29.945-21.917-36.525-6.796-7.546-12.333 0.621-12.174 1.622 0.071 0.452 6.189 10.731 12.174 21.916 2.952 5.512 6.436 12.982 9.742 17.857 2.17 3.201 4.524 4.263 5.682 6.493 1.924 3.707-0.043 5.609-1.625 4.871-1.126-0.525-3.153-1.096-7.305-8.116-1.676-2.835-4.769-8.383-6.494-12.178-4.601-10.117-12.101-27.254-16.234-27.596-8.008-0.667-5.682 12.175-5.682 12.175s6.922-0.88 9.742 4.871c2.195 4.477 3.372 16.99 5.681 22.728 4.008 9.961 8.288 12.532 6.493 13.798-3.738 2.632-7.054-3.771-10.551-13.798-3.375-9.677-3.102-18.501-5.683-21.105-2.894-2.923-8.193-0.922-8.928 4.059-0.978 6.631 1.328 25.427 12.176 51.138 3.349 7.939 9.539 16.597 13.798 23.539 9.814 15.984 17.857 26.785 17.857 26.785s2.323 1.297 4.871 1.625c3.127 0.399 6.59-0.089 6.494 0.811-0.175 1.631-8.485 3.835-8.928 8.117s1.825 6.047 5.682 8.929c4.268 3.189 10.608 3.28 10.552 4.059-0.109 1.478-6.181 3.756-12.177 2.434-4.666-1.029-7.359-3.377-8.117-3.248-1.551 0.267-14.305 31.804 8.117 51.138 33.474 28.863 85.085-10.051 86.854-35.715 2.165-31.449-28.102-43.483-29.222-43.018" fill="#fff"/>
<path d="m625.01 248.03c-5.861-28.371-31.093-44.42-31.657-42.209-0.564 2.214 11.361 13.177 12.988 31.658 1.339 15.219-8.117 29.221-8.117 29.221s5.145 6.419 8.929 12.987c3.925 6.821 6.493 13.799 6.493 13.799s17.575-15.391 11.364-45.456" fill="#fff"/>
<path d="m636.37 282.94c-0.927-0.342-2.682 6.31-6.492 12.176-4.129 6.349-9.494 12.024-9.741 13.797-0.479 3.412-0.106 21.269-4.87 34.903-5.183 14.83-17.859 25.976-17.859 25.976s0.599 7.679 3.248 8.928c2.648 1.248 34.983-10.766 47.078-41.397 11.974-30.318-9.435-53.675-11.364-54.383" fill="#fff"/>
<path d="m659.91 344.63c-0.887-0.074-11.285 17.383-25.162 29.222-13.718 11.7-29.458 16.09-30.035 17.858-0.574 1.766 2.011 9.555 2.437 17.856 0.383 7.485-3.226 12.367-0.812 13.799 2.413 1.432 31.152 2.959 50.324-22.728 23.625-31.647 4.135-55.933 3.248-56.007" fill="#fff"/>
<path d="m680.21 373.04c-1.007 1.943-1.25 28.734-27.598 47.892-22.825 16.592-47.892 15.422-47.892 15.422s-0.612 3.874-1.622 7.305c-1.021 3.47-2.435 6.493-2.435 6.493s14.401 22.302 38.149 19.481c29.415-3.494 56.622-25.864 60.067-52.761 4.038-31.511-17.663-45.774-18.669-43.832" fill="#fff"/>
<path d="m708.62 416.87c-0.26 2.306 1.947 20.505-21.105 42.211-18.214 17.148-42.92 19.85-43.021 21.102s10.443 19.346 29.221 19.483c28.05 0.201 53.981-27.666 54.386-51.949 0.367-22.046-19.222-33.15-19.481-30.847" fill="#fff"/>
<path d="m779.23 571.09c-0.854-1.806-6.36-9.933-8.929-16.235-2.695-6.61-3.116-10.628-0.813-10.551 1.514 0.05 1.794 4.292 3.248 6.495 1.947 2.944 4.026 5.117 4.871 4.87 0.844-0.251-2.768-18.953-15.423-34.092-11.527-13.792-22.024-27.216-23.54-26.787-1.514 0.429-2.756 3.103-4.058 4.871-1.092 1.475-3.383 1.732-3.246-0.812 0.041-0.782 1.113-4.683 0.811-8.93-0.299-4.207-1.287-6.473-3.247-8.929-0.508-0.636-5.125 7.492-12.176 13.8-8.273 7.401-18.668 13.798-18.668 13.798s5.141 5.629 10.552 6.494c4.684 0.751 7.045-0.62 8.928-1.623 2.217-1.182 2.723-0.434 2.436 0.811-0.267 1.151-1.362 2.477-2.436 3.247-2.01 1.444-5.365 1.701-5.682 2.435-0.142 0.333 1.595 9.259 1.623 18.671 0.034 11.361-2.434 15.576-1.623 23.539 0.301 2.944 3.031 10.685 4.87 18.668 0.9 3.9 0.812 8.198 1.623 11.364 2.538 9.886 15.82 4.049 13.8-5.683-1.116-5.374-5.004-13.138-4.058-17.857 1.573-7.856 8.929-11.363 8.929-11.363s0.328-2.365 3.246-3.247c1.46-0.441 20.787 9.635 25.975 22.727 5.521 13.931 1.836 21.507 4.058 25.165 4.915 8.08 11.931 1.216 12.176-4.06 0.188-4.051-0.307-20.567-3.247-26.786" fill="#fff"/>
<path d="m764.62 593.82c-0.367-3.166-0.476-7.139-0.811-7.306-0.335-0.164-3.188 1.38-3.246 7.306-0.057 5.928 5.539 6.828 5.682 6.494 0.143-0.335-1.194-2.799-1.625-6.494" fill="#fff"/>
<path d="m760.56 576.77c-0.216-0.605-4.739-4.896-8.929-8.927-5.226-5.032-9.582-9.917-10.553-9.742-0.773 0.143-2.394 3.533-3.245 8.117-1.072 5.763-1.021 13.149 2.434 15.422 4.097 2.698 7.502 0.513 8.118-5.681 0.377-3.812 1.001-5.159 1.623-5.682s1.412-0.056 1.623 0.812c0.116 0.48-2.239 8.094-1.623 14.61 0.502 5.317 3.023 9.419 6.493 8.929 3.711-0.523 2.89-4.902 3.248-8.118 0.519-4.672 1.296-8.379 0.811-9.74" fill="#fff"/>
<path d="m472.41 127.09c-1.692-2.993-4.057-4.059-4.871-2.434-0.813 1.622 1.804 2.609 1.623 3.245-0.084 0.302-6.448 8.801-36.439 11.838-22.666 2.215-37.95-3.296-39.861-2.909-1.904 0.386-1.95 2.767-0.811 3.247 1.138 0.482 11.246 2.165 12.987 3.247 1.745 1.085 15.571 13.747 29.875 12.657 16.837-1.282 24.2-15.907 26.001-17.725 1.258-1.272 4.925-3.655 7.682-5.509 1.851-1.25 2.778-1.675 3.002-1.598 0.559 0.195 1.276 1.724 1.624 1.623s0.957-2.551-0.812-5.682" fill="#010000"/>
<path d="m453.97 140.35c-0.727-0.061-8.787 2.666-19.71 3.784-10.034 1.027-20.767-0.343-21.103 0-0.168 0.17 3.095 4.249 8.648 6.015 8.202 2.615 18.09 2.188 25.444-1.956 5.226-2.946 7.056-7.815 6.721-7.843" fill="#fff"/>
<path d="m392.05 130.34c-2.069 0.599-4.037 1.987-5.682 4.871-1.332 2.335-0.976 3.897-0.811 4.868 0.211 1.246 1.296 1.868 1.623 0.813 0.157-0.51-0.031-1.322 3.247-4.87 1.873-2.03 2.318-1.905 3.246-2.436 2.301-1.317 0.942-3.992-1.623-3.246" fill="#010000"/>
<path d="m399.36 64.587c-11.006 1.558-15.193 11.781-15.423 25.164-0.209 12.119 5.325 20.859 10.552 21.914 2.822 0.57 12.798 0.452 14.819-0.669 6.904-3.825 9.489-12.804 9.534-23.682 0.066-16.826-9.491-24.141-19.482-22.727" fill="#010000"/>
<path d="m392.06 74.05c-1.243 1.46-5.04 6.975-5.149 14.614-0.195 13.93 6.316 19.37 6.652 19.209 0.333-0.164-2.41-4.501-3.072-8.635-0.593-3.691 0.206-7.358 0.206-7.358 0-1e-3 1.827 2.92 4.344 2.481 1.532-0.267 4.829-2.047 3.596-8.095-0.771-3.784-4.083-3.532-4.13-3.508 0 0 2.04-3.201 5.549-4.329 3.577-1.151 9.502 0.313 11.996 6.572 4.337 10.882-1.32 20.748-1.03 21.124 0.195 0.256 4.332-3.81 5.804-13.934 2.608-21.772-14.382-30.345-24.766-18.141" fill="#fff"/>
<path d="m465.54 79.221c-3.246-13.356-10.975-20.805-21.631-18.678-12.23 2.442-12.922 17.711-11.88 26.177 1.141 9.27 7.103 20.317 12.705 21.28 4.828 0.828 12.997-0.626 15.91-2.626 5.506-3.776 6.972-17.573 4.896-26.153" fill="#010000"/>
<path d="m463.77 85.233c-1.459-20.593-20.428-26.483-27.449-13.688-1.019 1.868-2.696 8.796-1.385 17.409 1.584 10.396 8.962 15.927 9.321 15.705 0.357-0.222-2.841-2.594-4.602-7.505-1.664-4.632-1.405-9.745-1.405-9.745s2.615 3.695 5.355 2.905c1.66-0.477 3.887-2.562 2.713-7.818-1.12-5.02-5.395-3.986-5.447-3.956 0 0 1.077-2.528 5.334-4.191 4.472-1.748 11.396 1.599 14.03 10.532 3.226 10.975-1.119 16.714-0.811 17.046 0.211 0.225 5.185-4.972 4.346-16.694" fill="#fff"/>
<path d="m648.55 1096.3s-17.964 5.79-53.571 5.68c-27.129-0.09-56.43-3.09-66.561-3.25-10.44-0.16-34.417 1.2-54.386 0-19.372-1.16-34.902-4.87-34.902-4.87s-1.307 7.1 20.293 9.74c17.806 2.18 40.157 0.04 62.502 0.81 22.343 0.78 59.664 6.89 102.27 3.25 30.164-2.57 24.351-11.36 24.351-11.36" fill="#fff"/>
<path d="m239.45 1114.9c-2.279-1.56-14.517 16.16-35.715 10.55-17.158-4.54-23.913-35.67-26.787-34.9-2.873 0.76 5.258 38.74 30.032 41.39 21.683 2.32 34.75-15.49 32.47-17.04" fill="#fff"/>
</g>
</svg>