<svg xmlns="http://www.w3.org/2000/svg" xmlns:xlink="http://www.w3.org/1999/xlink" viewBox="0 0 283.44 41.03" width="305px" height="44px" title="intergastra"><defs><style>.cls-1{isolation:isolate;}.cls-2{fill:#1d1d1b;}.cls-3,.cls-6{fill:#f8c9df;}.cls-4,.cls-7{fill:#e94e24;}.cls-5{fill:#afdff9;}.cls-6,.cls-7,.cls-8,.cls-9{fill-rule:evenodd;}.cls-8,.cls-9{opacity:0.5;mix-blend-mode:multiply;}.cls-8{fill:url(#linear-gradient);}.cls-9{fill:url(#linear-gradient-2);}</style><linearGradient id="linear-gradient" x1="32.31" y1="20.28" x2="16.11" y2="20.28" gradientUnits="userSpaceOnUse"><stop offset="0.77" stop-color="#fff" stop-opacity="0"/><stop offset="1"/></linearGradient><linearGradient id="linear-gradient-2" x1="24.21" y1="40.53" x2="24.21" y2="16.75" gradientUnits="userSpaceOnUse"><stop offset="0.83" stop-color="#fff" stop-opacity="0"/><stop offset="1"/></linearGradient></defs><title>IG2018-Logo_4c</title><g class="cls-1"><g id="Ebene_2" data-name="Ebene 2"><g id="Logo"><g id="Name_Pfade" data-name="Name Pfade"><path class="cls-2" d="M52.12,40.56H48.86c-.33,0-.47-.14-.47-.47V11.67c0-.33.14-.47.47-.47h3.26c.33,0,.47.14.47.47V40.1C52.59,40.42,52.45,40.56,52.12,40.56Z"/><path class="cls-2" d="M78.29,40.56h-3a.49.49,0,0,1-.42-.23l-9.93-18a18.42,18.42,0,0,1-.84-1.68l-.19,0c.09,1.12.14,7.13.14,10.81V40.1c0,.33-.14.47-.47.47H60.33c-.33,0-.47-.14-.47-.47V11.67c0-.33.14-.47.47-.47h3a.49.49,0,0,1,.42.23l9.93,18.08c.14.23.7,1.3.84,1.68l.19,0C74.6,30,74.55,24,74.55,20.34V11.67c0-.33.14-.47.47-.47h3.26c.33,0,.47.14.47.47V40.1C78.75,40.42,78.61,40.56,78.29,40.56Z"/><path class="cls-2" d="M100,14.93H94.66c-.33,0-.47.14-.47.47V40.1c0,.33-.14.47-.47.47H90.46c-.33,0-.47-.14-.47-.47V15.4c0-.33-.14-.47-.47-.47H84.17c-.33,0-.47-.14-.47-.47v-2.8c0-.33.14-.47.47-.47H100c.33,0,.47.14.47.47v2.8C100.49,14.79,100.35,14.93,100,14.93Z"/><path class="cls-2" d="M121.73,40.56H105.87c-.33,0-.47-.14-.47-.47V11.67c0-.33.14-.47.47-.47h15.86c.33,0,.47.14.47.47v2.8c0,.33-.14.47-.47.47H110.07c-.33,0-.47.14-.47.47v7.92c0,.33.14.47.47.47h9.56c.33,0,.47.14.47.47v2.8c0,.33-.14.47-.47.47h-9.56c-.33,0-.47.14-.47.47v8.39c0,.33.14.47.47.47h11.66c.33,0,.47.14.47.47v2.8C122.2,40.42,122.06,40.56,121.73,40.56Z"/><path class="cls-2" d="M145.69,40.56H142.1a.45.45,0,0,1-.42-.33L137.34,27.8a.35.35,0,0,0-.37-.28h-4.62c-.33,0-.47.14-.47.47V40.1c0,.33-.14.47-.47.47h-3.26c-.33,0-.47-.14-.47-.47V11.67c0-.33.14-.47.47-.47h9.33c5.13,0,8.39,3.26,8.39,8.39v.47a8.11,8.11,0,0,1-4.06,6.29c-.19.09-.28.19-.28.37a7.34,7.34,0,0,0,.37,1.12L145.78,39a7.32,7.32,0,0,1,.37,1.17C146.16,40.42,146,40.56,145.69,40.56Zm-4-21.44a4.24,4.24,0,0,0-4.2-4.19h-5.13c-.33,0-.47.14-.47.47v7.92c0,.33.14.47.47.47h5.13a4.24,4.24,0,0,0,4.2-4.19Z"/><path class="cls-2" d="M169.13,15.82,166.71,17a2.61,2.61,0,0,1-.79.33.44.44,0,0,1-.37-.28,4.4,4.4,0,0,0-3.87-2.61h-2.24a4.24,4.24,0,0,0-4.2,4.19V33.11a4.24,4.24,0,0,0,4.2,4.19h1.4a4.24,4.24,0,0,0,4.2-4.19v-3c0-.33-.14-.47-.47-.47H159.9c-.33,0-.47-.14-.47-.47v-2.8c0-.33.14-.47.47-.47h8.86c.33,0,.46.14.46.47v6.76c0,4.66-3.26,7.92-8.39,7.92h-1.4c-5.13,0-8.39-3.26-8.39-7.92V18.66c0-4.66,3.26-7.92,8.39-7.92h2.24a8,8,0,0,1,6.62,2.8,6.41,6.41,0,0,1,1.12,1.86A.44.44,0,0,1,169.13,15.82Z"/><path class="cls-2" d="M193,40.56h-3.5a.42.42,0,0,1-.47-.33l-1.73-6.15c0-.23-.23-.28-.47-.28h-7.56c-.23,0-.42,0-.47.28l-1.73,6.15a.42.42,0,0,1-.47.33h-3.5c-.33,0-.51-.14-.51-.37a10.74,10.74,0,0,1,.47-1.58l8.25-27.08a.42.42,0,0,1,.47-.33h2.52a.42.42,0,0,1,.47.33l8.3,27.22a9.65,9.65,0,0,1,.42,1.44C193.55,40.42,193.37,40.56,193,40.56Zm-7.28-12-2-7.87c-.09-.37-.47-1.68-.56-2.05H183c-.09.37-.47,1.77-.56,2.1l-2,7.64a10.13,10.13,0,0,0-.33,1.26c0,.23.19.42.51.42h4.9c.33,0,.51-.19.51-.42A7.32,7.32,0,0,0,185.77,28.59Z"/><path class="cls-2" d="M206.43,41h-2c-3.73,0-5.83-1.49-7-3.4a3.59,3.59,0,0,1-.65-1.35.35.35,0,0,1,.23-.37l2.38-1.21a2.59,2.59,0,0,1,.84-.37c.14,0,.28.09.37.33a4.32,4.32,0,0,0,3.87,2.66h2a4.24,4.24,0,0,0,4.2-4.19c0-2.94-2.71-4.15-5.64-5.5-3.64-1.63-7.69-3.5-7.69-8.95,0-4.66,3.26-7.92,8.39-7.92h.75c3.73,0,5.83,1.54,7.09,3.4a4.07,4.07,0,0,1,.65,1.26.45.45,0,0,1-.28.42l-2.52,1.26a2,2,0,0,1-.7.28.44.44,0,0,1-.37-.28,4.4,4.4,0,0,0-3.87-2.61h-.75a4.24,4.24,0,0,0-4.2,4.19c0,2.7,2.94,3.73,6.06,5.17,3.5,1.58,7.27,3.73,7.27,9.27C214.83,37.77,211.56,41,206.43,41Z"/><path class="cls-2" d="M235,14.93H229.6c-.33,0-.47.14-.47.47V40.1c0,.33-.14.47-.47.47H225.4c-.33,0-.47-.14-.47-.47V15.4c0-.33-.14-.47-.47-.47H219.1c-.33,0-.47-.14-.47-.47v-2.8c0-.33.14-.47.47-.47H235c.33,0,.47.14.47.47v2.8C235.43,14.79,235.29,14.93,235,14.93Z"/><path class="cls-2" d="M258.35,40.56h-3.59a.45.45,0,0,1-.42-.33L250,27.8a.35.35,0,0,0-.37-.28H245c-.33,0-.47.14-.47.47V40.1c0,.33-.14.47-.47.47h-3.26c-.33,0-.47-.14-.47-.47V11.67c0-.33.14-.47.47-.47h9.33c5.13,0,8.39,3.26,8.39,8.39v.47a8.11,8.11,0,0,1-4.06,6.29c-.19.09-.28.19-.28.37a7.34,7.34,0,0,0,.37,1.12L258.44,39a7.33,7.33,0,0,1,.37,1.17C258.81,40.42,258.67,40.56,258.35,40.56Zm-4-21.44a4.24,4.24,0,0,0-4.2-4.19H245c-.33,0-.47.14-.47.47v7.92c0,.33.14.47.47.47h5.13a4.24,4.24,0,0,0,4.2-4.19Z"/><path class="cls-2" d="M282.93,40.56h-3.5a.42.42,0,0,1-.47-.33l-1.73-6.15c0-.23-.23-.28-.47-.28h-7.56c-.23,0-.42,0-.47.28L267,40.24a.42.42,0,0,1-.47.33h-3.5c-.33,0-.51-.14-.51-.37a10.66,10.66,0,0,1,.47-1.58l8.25-27.08a.42.42,0,0,1,.47-.33h2.52a.42.42,0,0,1,.47.33L283,38.75a9.66,9.66,0,0,1,.42,1.44C283.44,40.42,283.25,40.56,282.93,40.56Zm-7.28-12-2-7.87c-.09-.37-.47-1.68-.56-2.05h-.19c-.09.37-.47,1.77-.56,2.1l-2,7.64a10.15,10.15,0,0,0-.33,1.26c0,.23.19.42.51.42h4.9c.33,0,.51-.19.51-.42A7.3,7.3,0,0,0,275.65,28.59Z"/></g><path class="cls-3" d="M16.11,24.1c0,16.46,16.19,16.37,16.19,16.46v-5.5s-10.93,0-10.93-11l0-18.61L16.11,0Z"/><path class="cls-4" d="M27,24.09a5.36,5.36,0,0,0,5.3,5.79v5.18s-10.93,0-10.93-11l0-18.61L27,11.2Z"/><polygon class="cls-5" points="27 11.2 16.11 11.2 16.11 16.75 32.3 16.75 27 11.2"/><path class="cls-5" d="M5.31,11.2,0,16.75V29.88s5.3.07,5.3-5.78c0-.6,0-12.9,0-12.9"/><path class="cls-4" d="M5.31,11.2V24.1A5.36,5.36,0,0,1,0,29.88v5.18s10.92,0,10.92-11V5.5Z"/><path class="cls-6" d="M21.4,5.5H16.11V24.07C16.11,40.55,0,40.56,0,40.56v-5.5s10.91,0,10.92-11V5.5L16.11,0Z"/><polygon class="cls-6" points="16.11 0 21.4 5.5 16.11 5.5 16.11 0"/><polygon class="cls-7" points="27 11.2 16.11 11.2 16.11 5.5 21.4 5.5 27 11.2"/><path class="cls-5" d="M32.3,16.75V29.88A5.35,5.35,0,0,1,27,24.12V11.2Z"/><path class="cls-8" d="M32.31,16.75,27,11.2,21.38,5.5h0L16.12,0V16.75h0V24.1c0,16.46,16.19,16.37,16.2,16.46V16.75Z"/><path class="cls-9" d="M16.11,16.75v8.07C16.55,39.3,29.89,40.38,32,40.53h.32V16.75Z"/></g></g></g></svg>