<?xml version="1.0" encoding="UTF-8"?>
<!-- Generator: Adobe Illustrator 24.1.0, SVG Export Plug-In . SVG Version: 6.00 Build 0)  -->
<svg version="1.1" id="Ebene_1" xmlns="http://www.w3.org/2000/svg" xmlns:xlink="http://www.w3.org/1999/xlink" x="0px" y="0px" viewBox="0 0 1200 858" style="enable-background:new 0 0 1200 858;" xml:space="preserve">
<style type="text/css">
	.st0{fill-rule:evenodd;clip-rule:evenodd;fill:#E6E6E6;}
	.st1{fill:#E6E6E6;}
	.st2{fill:none;stroke:#000000;stroke-width:10;stroke-miterlimit:10;}
	.st3{fill:none;stroke:#000000;stroke-width:12;stroke-miterlimit:10;}
	.st4{fill:#F7931E;}
	.st5{fill:#DA4724;}
	.st6{fill:none;stroke:#E6E6E6;stroke-width:10;stroke-miterlimit:10;}
	.st7{fill:none;stroke:#E6E6E6;stroke-width:12;stroke-miterlimit:10;}
</style>
<g id="Layer_1">
</g>
<g id="Layer_4">
</g>
<g id="Layer_2">
	<path class="st0" d="M895.1,573.2c-47.2,20.1-85.9,36.3-85.9,36.3s-0.6,3.1,0.2,8.1c0.6,3.9,5.1,10.6,9.9,8.2   c7.1-3.6,248.5-117.9,248.5-117.9s36.2,14.4,48.3,10.1c7.5-2.7,54.3-14.7,62-31.1c10.9-23.2,9.6-45.2,9.6-45.2   c-2.2-14.9-31.1-25.2-65-16.3c-22,5.8-49.9,26.8-52.4,40.9c0,0-3.3,18.8-6.8,29.5C1061.7,501.3,968.2,542,895.1,573.2"/>
	<path class="st1" d="M565.4,118.1C432,23.7,346.3,39.1,293.5,52.9c-19.6,5.1-39.6,14.5-72.8,15.9C152.4,71.7,95.1,38.1,56.5,8.1   c18.1,75.3,5.8,107.3-10.2,122.3c-9.1,8.5-17.5,9.7-26.1,22.3c-14.7,21.6-12.5,57.1,9.7,81.2c21.6,23.3-23.8,40.4,25.6,80.9   c22.5,23,3.3,64,3.3,64s83.9,21,213.6-3.7c35.8-6.8,126.1-47.8,151.4-69.3C499.9,241.3,546.7,154.1,565.4,118.1z"/>
	<polyline class="st2" points="398.5,590 254.4,658.2 279.3,710.3  "/>
	<polyline class="st2" points="451.3,628.7 326.1,727.4 362,772.5  "/>
	<polyline class="st3" points="783.9,512.8 799.2,578.1 897.3,600.5 890,527.6  "/>
	<path class="st4" d="M538.2,99.2c68-90.2,227.2-84.8,355.6,12s177.5,248.4,109.5,338.5"/>
	<polyline class="st3" points="799.4,88.3 859,57.3 939.9,117.3 930.3,189  "/>
	<g>
		
			<rect x="341.4" y="215.9" transform="matrix(0.602 -0.7985 0.7985 0.602 -141.8921 673.3223)" class="st5" width="526.2" height="526.2"/>
	</g>
	<polyline class="st3" points="521.8,324.9 454.7,328.2 406.2,240 478.3,227  "/>
	<polygon class="st1" points="707.6,370.9 795.6,428.3 804.2,483.9 657,540.2 640.5,385.2  "/>
</g>
<g id="Layer_3">
	<line class="st6" x1="887.8" y1="581.7" x2="903.5" y2="574.9"/>
	<line class="st7" x1="886.9" y1="587.1" x2="908.2" y2="576.4"/>
</g>
</svg>