<svg id="Ebene_1" data-name="Ebene 1" xmlns="http://www.w3.org/2000/svg" viewBox="0 0 75.63 19.31"><defs><style>.cls-1{fill:#286140;}</style></defs><path class="cls-1" d="M29,7.06a3,3,0,0,0,2.83-2.45,2,2,0,0,0-2.05-2.43,3,3,0,0,0-2.83,2.43A2,2,0,0,0,29,7.06" transform="translate(-0.18 -0.15)"/><path class="cls-1" d="M75.77,15.18a.13.13,0,0,0-.18,0,2.17,2.17,0,0,1-1.66.67c-.47,0-1.2-.26-.83-1.4l2.06-6a.17.17,0,0,0,0-.12A.12.12,0,0,0,75,8.27l-.4,0a4.91,4.91,0,0,0-3.4,1.2.16.16,0,0,1-.24,0,3.75,3.75,0,0,0-2.85-1.23,6.85,6.85,0,0,0-6.54,5c0,.09,0,.19-.08.28l0,.07a3.48,3.48,0,0,1-2.16,1.36c-.39,0-.64-.25-.39-1C59,14,62.15,4.6,62.69,3a.14.14,0,0,0,0-.11.13.13,0,0,0-.14-.08h-.38a4.48,4.48,0,0,0-4.52,3L56.4,9.49s0,0,0,.06a4.31,4.31,0,0,1-3,1.71.17.17,0,0,1-.12,0,.22.22,0,0,1,0-.08c-.31-1.47-1.83-2.91-4.54-2.91a7.18,7.18,0,0,0-6.88,4.92s0,.11,0,.16A6.88,6.88,0,0,1,36,15.88c-1-.12-1.74-.86-1.23-2.69a2.4,2.4,0,0,1,2.1-1.91,1.43,1.43,0,0,1,1.59,1.15c0,.05,0,.12.05.14a.22.22,0,0,0,.11,0l.18,0a2.81,2.81,0,0,0,1.8-.83A2,2,0,0,0,41,9.52a3.09,3.09,0,0,0-2.71-1.27,7.43,7.43,0,0,0-7.39,4.68h0c0,.07-.12.32-.17.5a3.51,3.51,0,0,1-2.28,1.5c-.39,0-.62-.21-.37-1L30,8.45a.14.14,0,0,0-.14-.19h-.39a4.44,4.44,0,0,0-4.5,3l-.54,1.55a3.45,3.45,0,0,1-4,2.22c-1-.24-1.44-1.42-1.76-2.85a.12.12,0,0,1,.07-.14c1.65-1,3.71-2.59,4.23-5.32C23.58,3.38,21.31.16,16,.15,7.75.13,2,5.68.52,11.13c-1,3.83.19,8.31,4.7,8.31,3.15,0,5.18-1.33,7.63-8.66.23-.69.65-1.91.84-2.51a.17.17,0,0,0,0-.12c0-.05-.07-.07-.14-.08h-.38c-1.24,0-3.94.34-4.9,3.07s-1.2,4.12-2.72,4C4.38,15,4.32,12.58,5.1,10.69A10.49,10.49,0,0,1,14,4.18c3.46-.32,4.28,1.1,3.86,3-.34,1.48-1.87,2.71-3.63,3.38-.51.2-.65.44-.6.86.47,4.18,2.4,7.83,5.15,8.05A5.58,5.58,0,0,0,23,17.71l0,0a.11.11,0,0,1,.16.06v0a2.16,2.16,0,0,0,2.32,1.69c2,0,3.59-1,5.15-2.48l0,0a.11.11,0,0,1,.16.05l.12.23a4.78,4.78,0,0,0,4,2.22A8.29,8.29,0,0,0,41.61,17l0,0c.06,0,.12,0,.16.05A4.51,4.51,0,0,0,46,19.45a7.2,7.2,0,0,0,6.76-4.28,3.28,3.28,0,0,0,.15-.36s0-.05.05-.06l0,0a5.43,5.43,0,0,0,1.58-.56.11.11,0,0,1,.17,0,.18.18,0,0,1,0,.1l-.43,1.24c-.83,2.39.17,3.9,2.12,3.9s3.49-.95,5-2.35l0,0a.11.11,0,0,1,.16.06A3.87,3.87,0,0,0,65,19.45a5.11,5.11,0,0,0,3.64-1.31l.06-.05s.09,0,.14.06a3,3,0,0,0,2.4,1.3,4,4,0,0,0,4.41-3.15,4.66,4.66,0,0,0,.13-1,.12.12,0,0,0,0-.11M49.3,13.91a2.39,2.39,0,0,1-2.2,1.95c-1.1,0-1.87-.88-1.36-2.67a2.39,2.39,0,0,1,2.15-1.91c1.1,0,2,.74,1.41,2.63m19.85,0A2.39,2.39,0,0,1,67,15.86c-1.1,0-1.87-.88-1.36-2.67a2.39,2.39,0,0,1,2.15-1.91c1.1,0,2,.74,1.41,2.63" transform="translate(-0.18 -0.15)"/></svg>