<svg width="216" height="139" viewBox="0 0 216 139" fill="none" xmlns="http://www.w3.org/2000/svg">
<g clip-path="url(#clip0_321_48)">
<g clip-path="url(#clip1_321_48)">
<path d="M107.61 70.34V78.36C107.61 90.84 100.45 99.22 89.7899 99.22C80.3699 99.22 75.5899 93.28 75.5899 81.57V49.29C75.5899 46.03 76.8199 44.45 79.3399 44.45H87.0599V42.59H55.6899V44.45H62.7299C65.3399 44.45 66.5599 45.88 66.5599 48.95V79.8C66.5599 87.59 68.6999 93.28 72.9099 96.72C77.0699 100.12 82.0999 101.85 87.8499 101.85C100.58 101.85 109.48 92.3 109.48 78.62L109.45 70.35H107.62L107.61 70.34Z" fill="#1D1D1B"/>
<path d="M151.88 86.4C151.88 94.05 149.85 98.05 147.85 98.05C145.85 98.05 144.93 96.73 144.67 93.63C143.84 82.47 138.49 75.26 128.32 71.65C141.8 69.41 146.62 62.53 146.62 57.19C146.62 48.43 137.66 42.54 124.33 42.54H117.56V43.93L117.52 44.3L117.86 44.23H118.17V44.2C118.5 44.18 118.85 44.16 119.24 44.16H122.3C131.31 44.16 136.27 48.75 136.27 57.09C136.27 65.43 131.04 70.45 121.54 70.45H117.65V72.16H118.14C129.41 72.16 133.64 76.31 134.31 88.01C134.79 96.75 138.4 101.19 145.05 101.19C152.5 101.19 153.5 93.05 153.5 85.09V81.46H151.88V86.37V86.4Z" fill="#1D1D1B"/>
<path d="M214.47 99.34C211.98 99.34 210.66 98.39 210.19 97.97C209.29 97.23 208.33 94.96 207.17 91.78L190.41 42.61H186.79L170.2 87.31C167.59 94.53 164.6 99.33 158.52 99.33H157.63V100.94H182.42V99.33H180.01C174.78 99.33 171.12 96.58 171.12 92.63C171.12 91.34 173.16 84.79 174.24 81.54C174.48 80.98 183.14 57.28 184.89 52.49L199.2 94.68C199.48 95.38 199.6 96.05 199.6 96.93C199.6 98.45 198.54 99.33 196.7 99.33H189.32V100.94H216.3V99.33H214.48L214.47 99.34Z" fill="#1D1D1B"/>
<path d="M53.1599 97.85H53.1499C52.2499 97.11 51.2899 94.84 50.1299 91.67L33.3999 42.58H29.7799L13.2099 87.2C10.5999 94.4 7.61991 99.2 1.54991 99.2H0.659912V100.81H25.4099V99.2H23.0099C17.7899 99.2 14.1399 96.45 14.1399 92.52C14.1399 91.23 16.1799 84.7 17.2499 81.45C17.4899 80.89 26.1299 57.24 27.8799 52.45L42.1699 94.57C42.5199 95.45 42.5699 96.23 42.5699 96.81C42.5699 98.33 41.5099 99.2 39.6699 99.2H32.2999V100.81H59.2399V99.2H57.4199C54.9299 99.2 53.6099 98.25 53.1599 97.85Z" fill="#1D1D1B"/>
<path d="M30.1201 76.2H24.55V81.77H30.1201V76.2Z" fill="#1D1D1B"/>
<path d="M4.81 124.67C4.81 125.34 4.64 125.84 4.3 126.18C3.96 126.52 3.41 126.69 2.64 126.69H0V119.49H2.5C3.84 119.49 4.51 120.08 4.51 121.26C4.51 121.71 4.41 122.07 4.22 122.34C4.03 122.61 3.77 122.79 3.45 122.88V122.9C4.36 123.09 4.81 123.68 4.81 124.69V124.67ZM4.19 124.62C4.19 123.67 3.66 123.19 2.62 123.19H0.6V126.13H2.64C3.15 126.13 3.53 126.01 3.79 125.78C4.05 125.55 4.18 125.16 4.18 124.62H4.19ZM3.9 121.36C3.9 120.9 3.79 120.57 3.56 120.36C3.33 120.16 2.97 120.05 2.48 120.05H0.61V122.67H2.55C3.45 122.67 3.89 122.23 3.89 121.36H3.9Z" fill="#1D1D1B"/>
<path d="M6.08008 119.49H6.82008L8.61008 122.86L8.96008 123.55H8.99008L9.33008 122.86L11.1101 119.49H11.8201L9.30008 124.17V126.69H8.66008V124.17L6.11008 119.49H6.08008Z" fill="#1D1D1B"/>
<path d="M21.49 126.69L20.81 124.79H17.34L16.66 126.69H15.98L18.72 119.49H19.47L22.21 126.69H21.5H21.49ZM19.08 119.96L18.83 120.7L17.55 124.22H20.6L19.34 120.7L19.1 119.96H19.07H19.08Z" fill="#1D1D1B"/>
<path d="M24.42 126.08H27.99L27.96 126.69H23.78V119.49H24.41V126.08H24.42Z" fill="#1D1D1B"/>
<path d="M30.2301 126.1H34.0501L34.0201 126.7H29.6001V119.5H33.8401L33.8701 120.1H30.2201V122.66H33.3801V123.2H30.2201V126.11L30.2301 126.1Z" fill="#1D1D1B"/>
<path d="M40.8301 119.49L38.6 122.95L41 126.69H40.25L38.1301 123.32L36.0601 126.69H35.3L37.6501 122.96L35.3801 119.49H36.16L38.1301 122.59L40.0801 119.49H40.8301Z" fill="#1D1D1B"/>
<path d="M47.49 126.69L46.81 124.79H43.34L42.66 126.69H41.98L44.72 119.49H45.47L48.21 126.69H47.5H47.49ZM45.08 119.96L44.83 120.7L43.55 124.22H46.6L45.34 120.7L45.1 119.96H45.07H45.08Z" fill="#1D1D1B"/>
<path d="M55 126.69H54.53L50.81 121.12L50.39 120.47H50.37V121.26V126.69H49.79V119.49H50.41L54.01 124.92L54.43 125.57H54.45L54.43 124.79V119.48H54.99V126.68L55 126.69Z" fill="#1D1D1B"/>
<path d="M62.7899 123.06C62.7899 124.35 62.5499 125.28 62.0699 125.84C61.5899 126.4 60.8199 126.68 59.7799 126.68H57.4199V119.48H59.7699C60.8399 119.48 61.6099 119.76 62.0799 120.31C62.5499 120.86 62.7899 121.78 62.7899 123.05V123.06ZM62.1299 123.06C62.1299 121.95 61.9499 121.18 61.5799 120.75C61.2199 120.32 60.5999 120.11 59.7499 120.11H58.0499V126.09H59.7599C60.5899 126.09 61.1999 125.87 61.5699 125.44C61.9399 125.01 62.1299 124.21 62.1299 123.07V123.06Z" fill="#1D1D1B"/>
<path d="M65.43 126.1H69.25L69.22 126.7H64.8V119.5H69.04L69.07 120.1H65.42V122.66H68.58V123.2H65.42V126.11L65.43 126.1Z" fill="#1D1D1B"/>
<path d="M75.5501 121.44C75.5501 122.59 75.0401 123.23 74.0101 123.34L76.0201 126.69H75.2501L73.4101 123.46H71.7401V126.69H71.1101V119.49H73.4401C74.1601 119.49 74.7001 119.65 75.0401 119.97C75.3801 120.29 75.5501 120.78 75.5501 121.44ZM74.9001 121.47C74.9001 120.97 74.7801 120.61 74.5501 120.39C74.3201 120.17 73.9501 120.06 73.4401 120.06H71.7401V122.94H73.3801C73.9001 122.94 74.2901 122.82 74.5301 122.59C74.7701 122.36 74.8901 121.99 74.8901 121.47H74.9001Z" fill="#1D1D1B"/>
<path d="M86.17 126.69H85.54V123.22H81.65V126.69H81.02V119.49H81.65V122.63H85.54V119.49H86.17V126.69Z" fill="#1D1D1B"/>
<path d="M89.2101 126.1H93.0301L93.0001 126.7H88.5801V119.5H92.8201L92.8501 120.1H89.2001V122.66H92.3601V123.2H89.2001V126.11L89.2101 126.1Z" fill="#1D1D1B"/>
<path d="M99.3299 121.44C99.3299 122.59 98.8199 123.23 97.7899 123.34L99.7999 126.69H99.0299L97.1899 123.46H95.5199V126.69H94.8899V119.49H97.2199C97.9399 119.49 98.4799 119.65 98.8199 119.97C99.1599 120.29 99.3299 120.78 99.3299 121.44ZM98.6799 121.47C98.6799 120.97 98.5599 120.61 98.3299 120.39C98.0999 120.17 97.7299 120.06 97.2199 120.06H95.5199V122.94H97.1599C97.6799 122.94 98.0699 122.82 98.3099 122.59C98.5499 122.36 98.6699 121.99 98.6699 121.47H98.6799Z" fill="#1D1D1B"/>
<path d="M105.88 121.44C105.88 122.59 105.37 123.23 104.34 123.34L106.35 126.69H105.58L103.74 123.46H102.07V126.69H101.44V119.49H103.77C104.49 119.49 105.03 119.65 105.37 119.97C105.71 120.29 105.88 120.78 105.88 121.44ZM105.23 121.47C105.23 120.97 105.11 120.61 104.88 120.39C104.65 120.17 104.28 120.06 103.77 120.06H102.07V122.94H103.71C104.23 122.94 104.62 122.82 104.86 122.59C105.1 122.36 105.22 121.99 105.22 121.47H105.23Z" fill="#1D1D1B"/>
<path d="M107.98 119.49H108.73L111.01 125.09L111.29 125.81H111.32L111.59 125.09L113.87 119.49H114.61V126.69H114.04V121.3L114.06 120.52H114.03L113.75 121.24L111.53 126.68H111.05L108.83 121.27L108.55 120.54H108.53V121.33V126.69H107.97V119.49H107.98Z" fill="#1D1D1B"/>
<path d="M121.7 126.69L121.02 124.79H117.55L116.87 126.69H116.19L118.93 119.49H119.68L122.42 126.69H121.71H121.7ZM119.29 119.96L119.04 120.7L117.76 124.22H120.81L119.55 120.7L119.31 119.96H119.28H119.29Z" fill="#1D1D1B"/>
<path d="M129.2 126.69H128.73L125 121.12L124.58 120.47H124.56V121.26V126.69H123.98V119.49H124.6L128.2 124.92L128.62 125.57H128.64L128.62 124.79V119.48H129.18V126.68L129.2 126.69Z" fill="#1D1D1B"/>
<path d="M136.83 126.69H136.36L132.63 121.12L132.21 120.47H132.19V121.26V126.69H131.61V119.49H132.23L135.83 124.92L136.25 125.57H136.27L136.25 124.79V119.48H136.81V126.68L136.83 126.69Z" fill="#1D1D1B"/>
<path d="M147.94 126.26L147.73 126.79C147.22 126.48 146.71 126.1 146.19 125.65C145.55 126.42 144.81 126.81 143.96 126.81C143.33 126.81 142.86 126.64 142.55 126.29C142.25 125.94 142.09 125.5 142.09 124.97C142.09 124.49 142.22 124.07 142.47 123.7C142.72 123.34 143.06 122.98 143.49 122.64C143.06 121.97 142.85 121.4 142.85 120.93C142.85 120.46 142.98 120.09 143.25 119.8C143.52 119.52 143.93 119.37 144.47 119.37C144.94 119.37 145.31 119.48 145.56 119.7C145.82 119.92 145.94 120.21 145.94 120.57C145.94 120.78 145.9 120.97 145.81 121.16C145.72 121.35 145.6 121.53 145.44 121.69C145.28 121.86 145.12 122.01 144.95 122.15C144.78 122.29 144.59 122.44 144.37 122.61C144.29 122.67 144.24 122.71 144.2 122.73C144.71 123.44 145.34 124.14 146.1 124.82C146.46 124.26 146.69 123.68 146.79 123.08H147.29C147.22 123.77 146.96 124.47 146.5 125.18C146.99 125.6 147.47 125.96 147.92 126.25L147.94 126.26ZM144.05 126.24C144.68 126.24 145.25 125.92 145.78 125.29C144.98 124.55 144.32 123.81 143.79 123.08C143.05 123.69 142.69 124.31 142.69 124.93C142.69 125.33 142.82 125.65 143.07 125.89C143.32 126.12 143.65 126.24 144.05 126.24ZM143.4 120.93C143.4 121.28 143.58 121.74 143.94 122.31C144.29 122.05 144.53 121.87 144.68 121.75C144.83 121.63 144.98 121.47 145.15 121.25C145.31 121.03 145.39 120.82 145.39 120.61C145.39 120.37 145.31 120.19 145.15 120.05C144.99 119.92 144.76 119.85 144.46 119.85C144.16 119.85 143.9 119.95 143.7 120.14C143.5 120.33 143.4 120.59 143.4 120.93Z" fill="#1D1D1B"/>
<path d="M157.04 120.11H154.77V126.7H154.14V120.11H151.88L151.9 119.5H157.03V120.11H157.04Z" fill="#1D1D1B"/>
<path d="M163.93 123.09C163.93 124.43 163.71 125.39 163.28 125.97C162.85 126.54 162.11 126.83 161.06 126.83C160.01 126.83 159.29 126.54 158.85 125.97C158.41 125.39 158.19 124.44 158.19 123.1C158.19 121.76 158.41 120.81 158.85 120.24C159.29 119.67 160.03 119.39 161.06 119.39C162.09 119.39 162.84 119.68 163.28 120.24C163.72 120.81 163.93 121.76 163.93 123.1V123.09ZM163.05 124.98C163.2 124.53 163.28 123.9 163.28 123.09C163.28 122.28 163.2 121.66 163.05 121.2C162.9 120.75 162.66 120.43 162.35 120.25C162.04 120.07 161.61 119.98 161.06 119.98C160.25 119.98 159.67 120.2 159.34 120.64C159.01 121.08 158.84 121.9 158.84 123.09C158.84 123.9 158.92 124.53 159.07 124.98C159.22 125.43 159.46 125.75 159.77 125.94C160.08 126.13 160.52 126.21 161.07 126.21C161.62 126.21 162.04 126.12 162.35 125.93C162.66 125.74 162.89 125.43 163.05 124.97V124.98Z" fill="#1D1D1B"/>
<path d="M170.75 124.67C170.75 125.34 170.58 125.84 170.24 126.18C169.9 126.52 169.35 126.69 168.58 126.69H165.94V119.49H168.44C169.78 119.49 170.45 120.08 170.45 121.26C170.45 121.71 170.35 122.07 170.16 122.34C169.97 122.61 169.71 122.79 169.39 122.88V122.9C170.3 123.09 170.75 123.68 170.75 124.69V124.67ZM170.13 124.62C170.13 123.67 169.61 123.19 168.56 123.19H166.55V126.13H168.59C169.1 126.13 169.48 126.01 169.74 125.78C170 125.55 170.13 125.16 170.13 124.62ZM169.84 121.36C169.84 120.9 169.73 120.57 169.5 120.36C169.27 120.16 168.91 120.05 168.42 120.05H166.56V122.67H168.5C169.4 122.67 169.84 122.23 169.84 121.36Z" fill="#1D1D1B"/>
<path d="M172.93 126.69V119.49H173.56V126.69H172.93Z" fill="#1D1D1B"/>
<path d="M180.8 126.69L180.12 124.79H176.65L175.97 126.69H175.29L178.03 119.49H178.78L181.52 126.69H180.81H180.8ZM178.39 119.96L178.14 120.7L176.86 124.22H179.91L178.65 120.7L178.41 119.96H178.38H178.39Z" fill="#1D1D1B"/>
<path d="M186.99 124.7C186.99 125.37 186.79 125.89 186.39 126.26C185.99 126.63 185.41 126.82 184.65 126.82C183.89 126.82 183.21 126.63 182.61 126.26L182.72 125.66C183.29 126.03 183.93 126.22 184.65 126.22C185.21 126.22 185.64 126.09 185.94 125.83C186.23 125.57 186.38 125.2 186.38 124.73C186.38 124.43 186.29 124.18 186.11 123.97C185.93 123.76 185.7 123.61 185.42 123.5C185.15 123.4 184.85 123.29 184.53 123.16C184.21 123.04 183.92 122.92 183.64 122.79C183.36 122.66 183.14 122.47 182.95 122.21C182.77 121.95 182.68 121.64 182.68 121.26C182.68 120.69 182.87 120.23 183.24 119.88C183.61 119.53 184.17 119.35 184.91 119.35C185.6 119.35 186.21 119.48 186.75 119.73L186.64 120.3C186.06 120.06 185.5 119.94 184.94 119.94C184.38 119.94 183.96 120.06 183.69 120.3C183.42 120.54 183.28 120.85 183.28 121.22C183.28 121.47 183.35 121.68 183.49 121.86C183.63 122.04 183.81 122.18 184.02 122.28C184.24 122.38 184.48 122.48 184.74 122.57C185 122.66 185.26 122.76 185.53 122.86C185.79 122.96 186.03 123.08 186.25 123.22C186.47 123.36 186.64 123.55 186.78 123.8C186.92 124.05 186.99 124.34 186.99 124.68V124.7Z" fill="#1D1D1B"/>
<path d="M196.97 124.67C196.97 125.34 196.8 125.84 196.46 126.18C196.12 126.52 195.57 126.69 194.8 126.69H192.16V119.49H194.66C196 119.49 196.67 120.08 196.67 121.26C196.67 121.71 196.57 122.07 196.38 122.34C196.19 122.61 195.93 122.79 195.61 122.88V122.9C196.52 123.09 196.97 123.68 196.97 124.69V124.67ZM196.35 124.62C196.35 123.67 195.82 123.19 194.78 123.19H192.77V126.13H194.81C195.32 126.13 195.7 126.01 195.96 125.78C196.22 125.55 196.35 125.16 196.35 124.62ZM196.06 121.36C196.06 120.9 195.95 120.57 195.72 120.36C195.49 120.16 195.13 120.05 194.64 120.05H192.78V122.67H194.72C195.62 122.67 196.06 122.23 196.06 121.36Z" fill="#1D1D1B"/>
<path d="M203.7 126.69L203.02 124.79H199.55L198.87 126.69H198.19L200.93 119.49H201.68L204.42 126.69H203.71H203.7ZM201.29 119.96L201.04 120.7L199.76 124.22H202.81L201.55 120.7L201.31 119.96H201.28H201.29ZM200.73 118.58C200.73 118.82 200.62 118.94 200.4 118.94C200.18 118.94 200.06 118.82 200.06 118.58C200.06 118.34 200.17 118.22 200.4 118.22C200.63 118.22 200.73 118.34 200.73 118.58ZM202.53 118.58C202.53 118.82 202.42 118.94 202.2 118.94C201.98 118.94 201.86 118.82 201.86 118.58C201.86 118.34 201.97 118.22 202.2 118.22C202.43 118.22 202.53 118.34 202.53 118.58Z" fill="#1D1D1B"/>
<path d="M210.28 120.11H208.01V126.7H207.38V120.11H205.12L205.14 119.5H210.27V120.11H210.28Z" fill="#1D1D1B"/>
<path d="M216.06 126.69H211.27V126.26L214.88 120.74L215.31 120.12V120.1H211.39L211.42 119.5H216.08V120L212.5 125.45L212.07 126.06V126.09H216.09L216.06 126.69Z" fill="#1D1D1B"/>
<path d="M80.5999 13.06C80.5999 14.21 80.0899 14.85 79.0599 14.96L81.0699 18.31H80.2999L78.4599 15.08H76.7899V18.31H76.1599V11.12H78.4899C79.2099 11.12 79.7499 11.28 80.0899 11.6C80.4299 11.92 80.5999 12.41 80.5999 13.07V13.06ZM79.9499 13.09C79.9499 12.59 79.8299 12.23 79.5999 12.01C79.3699 11.79 78.9999 11.68 78.4899 11.68H76.7899V14.56H78.4299C78.9499 14.56 79.3399 14.44 79.5799 14.21C79.8199 13.98 79.9399 13.61 79.9399 13.09H79.9499Z" fill="#1D1D1B"/>
<path d="M83.33 17.72H87.15L87.12 18.32H82.7V11.12H86.94L86.97 11.72H83.32V14.28H86.48V14.82H83.32V17.73L83.33 17.72Z" fill="#1D1D1B"/>
<path d="M92.88 16.33C92.88 17 92.68 17.52 92.28 17.89C91.88 18.26 91.3 18.45 90.54 18.45C89.78 18.45 89.1 18.26 88.5 17.89L88.61 17.29C89.18 17.66 89.82 17.85 90.54 17.85C91.1 17.85 91.53 17.72 91.83 17.46C92.12 17.2 92.27 16.83 92.27 16.36C92.27 16.06 92.18 15.81 92 15.6C91.82 15.39 91.59 15.24 91.31 15.13C91.04 15.03 90.74 14.92 90.42 14.79C90.1 14.67 89.81 14.55 89.53 14.42C89.25 14.29 89.03 14.1 88.84 13.84C88.66 13.58 88.57 13.27 88.57 12.89C88.57 12.32 88.76 11.86 89.13 11.51C89.5 11.16 90.06 10.98 90.8 10.98C91.49 10.98 92.1 11.11 92.64 11.36L92.53 11.93C91.95 11.69 91.39 11.57 90.83 11.57C90.27 11.57 89.85 11.69 89.58 11.93C89.31 12.17 89.17 12.48 89.17 12.85C89.17 13.1 89.24 13.31 89.38 13.49C89.52 13.67 89.7 13.81 89.91 13.91C90.13 14.01 90.37 14.11 90.63 14.2C90.89 14.29 91.15 14.39 91.42 14.49C91.68 14.59 91.92 14.71 92.14 14.85C92.36 14.99 92.53 15.18 92.67 15.43C92.81 15.68 92.88 15.97 92.88 16.31V16.33Z" fill="#1D1D1B"/>
<path d="M98.96 11.73H96.69V18.32H96.06V11.73H93.8L93.82 11.12H98.95V11.73H98.96Z" fill="#1D1D1B"/>
<path d="M105.19 18.32L104.51 16.42H101.04L100.36 18.32H99.6799L102.41 11.12H103.16L105.9 18.32H105.19ZM102.78 11.59L102.53 12.33L101.25 15.85H104.3L103.04 12.33L102.8 11.59H102.77H102.78Z" fill="#1D1D1B"/>
<path d="M112.63 11.12V15.72C112.63 17.54 111.75 18.46 109.98 18.46C108.21 18.46 107.32 17.55 107.32 15.72V11.12H107.95V15.72C107.95 16.45 108.12 16.99 108.45 17.33C108.78 17.67 109.29 17.84 109.98 17.84C110.67 17.84 111.16 17.67 111.5 17.32C111.83 16.97 112 16.44 112 15.72V11.12H112.63Z" fill="#1D1D1B"/>
<path d="M119.34 13.06C119.34 14.21 118.83 14.85 117.8 14.96L119.81 18.31H119.04L117.2 15.08H115.53V18.31H114.9V11.12H117.23C117.95 11.12 118.49 11.28 118.83 11.6C119.17 11.92 119.34 12.41 119.34 13.07V13.06ZM118.69 13.09C118.69 12.59 118.57 12.23 118.34 12.01C118.11 11.79 117.74 11.68 117.23 11.68H115.53V14.56H117.17C117.69 14.56 118.08 14.44 118.32 14.21C118.56 13.98 118.68 13.61 118.68 13.09H118.69Z" fill="#1D1D1B"/>
<path d="M126.12 18.32L125.44 16.42H121.97L121.29 18.32H120.61L123.35 11.12H124.1L126.84 18.32H126.13H126.12ZM123.71 11.59L123.46 12.33L122.18 15.85H125.23L123.97 12.33L123.73 11.59H123.7H123.71Z" fill="#1D1D1B"/>
<path d="M133.63 18.32H133.16L129.43 12.75L129.01 12.1H128.99V12.89V18.32H128.41V11.12H129.03L132.63 16.55L133.05 17.2H133.07L133.05 16.42V11.12H133.61V18.32H133.63Z" fill="#1D1D1B"/>
<path d="M140.32 11.73H138.05V18.32H137.42V11.73H135.16L135.18 11.12H140.31V11.73H140.32Z" fill="#1D1D1B"/>
</g>
</g>
<defs>
<clipPath id="clip0_321_48">
<rect width="216" height="139" fill="white"/>
</clipPath>
<clipPath id="clip1_321_48">
<rect width="216.29" height="115.82" fill="white" transform="translate(0 11)"/>
</clipPath>
</defs>
</svg>