<?xml version="1.0" encoding="UTF-8"?>
<svg id="Ebene_2" xmlns="http://www.w3.org/2000/svg" viewBox="0 0 283.46 211.33"><defs><style>.cls-1{fill:#dd0029;}</style></defs><g id="Ebene_1-2"><g><g><path class="cls-1" d="M83.91,144.36c0-.36,.27-.63,.63-.63s.63,.27,.63,.63v.63c0,.36-.27,.62-.63,.62s-.63-.26-.63-.62v-.63Zm1.84,0c0-.36,.27-.63,.63-.63s.63,.27,.63,.63v.63c0,.36-.27,.62-.63,.62s-.63-.26-.63-.62v-.63Zm1.84,0c0-.36,.27-.63,.63-.63s.63,.27,.63,.63v.63c0,.36-.27,.62-.63,.62s-.63-.26-.63-.62v-.63Z"/><path class="cls-1" d="M96.22,139.31c0-.59-.47-1.48-1.76-1.48-1,0-1.61,.27-2.03,.49-.09,.06-.17,.09-.34,.09-.38,0-.61-.3-.61-.61,0-.15,.06-.36,.27-.49,.44-.29,1.57-.7,2.71-.7,2.16,0,3.02,1.54,3.02,2.69v4.2c0,.53,.06,.67,.19,.72,.3,.14,.53,.36,.53,.66,0,.38-.27,.61-.61,.61-.11,0-.76-.04-1.06-.66-.44,.36-1.27,.78-2.37,.78-1.5,0-3.11-.81-3.11-2.69,0-1.77,1.27-2.66,3.68-2.66h1.5v-.95Zm0,2.15h-1.5c-1.61,0-2.39,.47-2.39,1.46s.93,1.48,1.82,1.48c.99,0,1.88-.4,2.07-.65v-2.29Z"/><path class="cls-1" d="M100.28,133.07c0-.36,.26-.62,.62-.62s.63,.26,.63,.62v9.2c0,1.73,.21,2.01,.96,2.01,.36,0,.63,.25,.63,.6s-.27,.61-.63,.61c-1.71,0-2.22-.74-2.22-3.23v-9.2Z"/><path class="cls-1" d="M104.81,133.07c0-.36,.27-.62,.63-.62s.63,.26,.63,.62v9.2c0,1.73,.21,2.01,.97,2.01,.36,0,.62,.25,.62,.6s-.26,.61-.62,.61c-1.71,0-2.22-.74-2.22-3.23v-9.2Z"/><path class="cls-1" d="M112.61,144.4c1.06,0,2.22-.59,2.43-.66,.11-.06,.25-.08,.32-.08,.32,0,.59,.29,.59,.61,0,.27-.15,.44-.3,.53-.08,.06-1.54,.81-3.04,.81-2.27,0-3.83-1.82-3.83-4.48s1.54-4.51,3.93-4.51c2.05,0,3.19,1.42,3.19,2.54,0,2.14-2.22,2.66-5.77,2.7,.15,1.38,1.04,2.54,2.48,2.54Zm-2.54-3.68c3.26-.05,4.53-.53,4.53-1.55,0-.55-.63-1.33-1.9-1.33-1.5,0-2.5,1.03-2.64,2.88Z"/><path class="cls-1" d="M118.23,137.34c0-.36,.27-.61,.63-.61s.61,.25,.61,.61v.89c.17-.64,1.06-1.61,2.31-1.61,.42,0,1.39,.1,1.39,.72,0,.36-.19,.61-.61,.61-.23,0-.53-.11-.78-.11-.72,0-2.29,.36-2.29,3.61v3.43c0,.36-.27,.62-.63,.62s-.63-.26-.63-.62v-7.54Z"/><path class="cls-1" d="M127.6,144.4c1.06,0,2.22-.59,2.43-.66,.11-.06,.25-.08,.32-.08,.32,0,.59,.29,.59,.61,0,.27-.15,.44-.3,.53-.08,.06-1.54,.81-3.04,.81-2.28,0-3.83-1.82-3.83-4.48s1.54-4.51,3.93-4.51c2.05,0,3.19,1.42,3.19,2.54,0,2.14-2.22,2.66-5.77,2.7,.15,1.38,1.04,2.54,2.49,2.54Zm-2.54-3.68c3.26-.05,4.53-.53,4.53-1.55,0-.55-.63-1.33-1.9-1.33-1.5,0-2.5,1.03-2.64,2.88Z"/><path class="cls-1" d="M133.22,137.34c0-.36,.27-.61,.63-.61s.61,.25,.61,.61v.89c.17-.64,1.06-1.61,2.31-1.61,.42,0,1.39,.1,1.39,.72,0,.36-.19,.61-.61,.61-.23,0-.53-.11-.78-.11-.72,0-2.3,.36-2.3,3.61v3.43c0,.36-.26,.62-.62,.62s-.63-.26-.63-.62v-7.54Z"/><path class="cls-1" d="M142.4,145.61c-1.5,0-2.66-.7-2.79-.79-.17-.13-.29-.29-.29-.57,0-.34,.31-.59,.61-.59,.17,0,.27,.04,.36,.09,.17,.12,1.04,.65,2.11,.65,.87,0,1.74-.25,1.74-1.29,0-1.76-4.45-1.38-4.45-4.13,0-1.64,1.54-2.36,2.96-2.36,1.02,0,1.84,.32,2.19,.53,.19,.09,.31,.26,.31,.53,0,.36-.27,.59-.59,.59-.11,0-.25-.02-.38-.08-.28-.13-.83-.36-1.53-.36-.83,0-1.67,.27-1.67,1.14,0,1.65,4.45,1.29,4.45,4.13,0,1.37-1.23,2.5-3.03,2.5Z"/><path class="cls-1" d="M147.89,137.94h-.95c-.36,0-.62-.27-.62-.63s.26-.59,.62-.59h.95v-1.98c0-.36,.26-.62,.62-.62s.63,.27,.63,.62v1.98h2.24c.36,0,.63,.23,.63,.59s-.26,.63-.63,.63h-2.24v4.31c0,1.88,.97,2.15,1.8,2.15,.42,0,.74-.15,.87-.23,.08-.04,.17-.08,.28-.08,.32,0,.61,.23,.61,.61,0,.26-.13,.45-.3,.55-.17,.09-.76,.36-1.41,.36-1.53,0-3.11-.42-3.11-3.36v-4.31Z"/><path class="cls-1" d="M157.68,144.4c1.06,0,2.22-.59,2.43-.66,.11-.06,.25-.08,.32-.08,.32,0,.59,.29,.59,.61,0,.27-.15,.44-.3,.53-.08,.06-1.54,.81-3.04,.81-2.28,0-3.83-1.82-3.83-4.48s1.54-4.51,3.93-4.51c2.05,0,3.19,1.42,3.19,2.54,0,2.14-2.22,2.66-5.77,2.7,.15,1.38,1.04,2.54,2.48,2.54Zm-2.54-3.68c3.26-.05,4.53-.53,4.53-1.55,0-.55-.62-1.33-1.89-1.33-1.5,0-2.51,1.03-2.64,2.88Z"/><path class="cls-1" d="M168.91,143.87c0-.34,.29-.59,.59-.59,.11,0,.27,.02,.46,.17,.45,.36,1.25,.95,2.37,.95,1.56,0,2.52-.89,2.52-2.22,0-2.71-5.62-2.26-5.62-5.92,0-1.92,1.71-3.07,3.47-3.07,1.31,0,2.28,.61,2.87,1.03,.19,.13,.26,.3,.26,.53,0,.34-.26,.6-.59,.6-.11,0-.28-.04-.38-.13-.44-.34-1.2-.82-2.16-.82-1.14,0-2.18,.76-2.18,1.86,0,2.68,5.62,2.14,5.62,5.92,0,2.07-1.54,3.43-3.82,3.43-1.46,0-2.35-.61-3.15-1.21-.17-.13-.27-.32-.27-.53Z"/><path class="cls-1" d="M183.2,139.31c0-.59-.47-1.48-1.77-1.48-1,0-1.61,.27-2.03,.49-.09,.06-.17,.09-.34,.09-.38,0-.61-.3-.61-.61,0-.15,.06-.36,.26-.49,.44-.29,1.58-.7,2.71-.7,2.16,0,3.02,1.54,3.02,2.69v4.2c0,.53,.06,.67,.19,.72,.3,.14,.53,.36,.53,.66,0,.38-.26,.61-.61,.61-.12,0-.76-.04-1.06-.66-.44,.36-1.27,.78-2.37,.78-1.5,0-3.11-.81-3.11-2.69,0-1.77,1.27-2.66,3.68-2.66h1.5v-.95Zm0,2.15h-1.5c-1.62,0-2.39,.47-2.39,1.46s.93,1.48,1.82,1.48c.99,0,1.88-.4,2.07-.65v-2.29Z"/><path class="cls-1" d="M192.61,140.03c0-1.75-.49-2.2-2.12-2.2-.95,0-1.76,.4-1.97,.51v6.53c0,.36-.26,.62-.62,.62s-.63-.26-.63-.62v-11.8c0-.36,.27-.62,.63-.62s.62,.26,.62,.62v4.16c.42-.25,1.22-.61,2.24-.61,2.52,0,3.11,1.23,3.11,3.28v4.97c0,.36-.28,.62-.63,.62s-.63-.26-.63-.62v-4.84Z"/><path class="cls-1" d="M202.04,140.03c0-1.75-.51-2.2-2.11-2.2-.95,0-1.76,.4-1.97,.51v6.53c0,.36-.26,.62-.62,.62s-.63-.26-.63-.62v-7.54c0-.36,.23-.61,.59-.61s.59,.25,.59,.55c.23-.13,1.1-.66,2.32-.66,2.2,0,3.09,.95,3.09,3.22v5.03c0,.36-.27,.62-.63,.62s-.63-.26-.63-.62v-4.84Z"/><path class="cls-1" d="M209.4,144.4c1.06,0,2.22-.59,2.43-.66,.11-.06,.25-.08,.32-.08,.32,0,.59,.29,.59,.61,0,.27-.15,.44-.3,.53-.08,.06-1.54,.81-3.04,.81-2.28,0-3.83-1.82-3.83-4.48s1.54-4.51,3.93-4.51c2.05,0,3.19,1.42,3.19,2.54,0,2.14-2.22,2.66-5.77,2.7,.15,1.38,1.04,2.54,2.49,2.54Zm-2.54-3.68c3.26-.05,4.53-.53,4.53-1.55,0-.55-.62-1.33-1.9-1.33-1.5,0-2.5,1.03-2.64,2.88Z"/><path class="cls-1" d="M225.62,139.31c0-.59-.47-1.48-1.76-1.48-1,0-1.61,.27-2.03,.49-.09,.06-.17,.09-.34,.09-.38,0-.61-.3-.61-.61,0-.15,.06-.36,.27-.49,.44-.29,1.57-.7,2.71-.7,2.16,0,3.02,1.54,3.02,2.69v4.2c0,.53,.06,.67,.19,.72,.3,.14,.53,.36,.53,.66,0,.38-.27,.61-.61,.61-.12,0-.76-.04-1.07-.66-.43,.36-1.27,.78-2.37,.78-1.5,0-3.11-.81-3.11-2.69,0-1.77,1.27-2.66,3.68-2.66h1.5v-.95Zm0,2.15h-1.5c-1.61,0-2.39,.47-2.39,1.46s.93,1.48,1.82,1.48c.99,0,1.88-.4,2.07-.65v-2.29Z"/><path class="cls-1" d="M235.09,144.89v-.07c-.28,.25-1.12,.79-2.31,.79-2.22,0-3.09-.93-3.09-3.2v-5.05c0-.36,.27-.63,.62-.63s.63,.26,.63,.63v4.86c0,1.73,.47,2.18,2.11,2.18,.93,0,1.69-.47,1.97-.74v-6.3c0-.36,.27-.63,.63-.63s.63,.26,.63,.63v7.51c0,.36-.23,.62-.59,.62s-.59-.26-.59-.61Z"/><path class="cls-1" d="M239.38,137.94h-.97c-.36,0-.62-.25-.62-.61s.26-.61,.62-.61h.99c.21-3.78,2.5-4.23,3.51-4.23,.49,0,1.01,.08,1.5,.27,.26,.09,.4,.32,.4,.59,0,.34-.27,.57-.61,.57-.06,0-.13,0-.25-.04-.3-.09-.63-.17-1.04-.17-.78,0-2.12,.4-2.26,3.02h2.18c.36,0,.62,.25,.62,.61s-.26,.61-.62,.61h-2.2v6.93c0,.36-.27,.62-.63,.62s-.63-.26-.63-.62v-6.93Z"/><path class="cls-1" d="M250.89,143.87c0-.34,.29-.59,.59-.59,.12,0,.26,.02,.45,.17,.46,.36,1.25,.95,2.37,.95,1.56,0,2.52-.89,2.52-2.22,0-2.71-5.62-2.26-5.62-5.92,0-1.92,1.71-3.07,3.47-3.07,1.31,0,2.28,.61,2.87,1.03,.19,.13,.26,.3,.26,.53,0,.34-.26,.6-.59,.6-.11,0-.28-.04-.38-.13-.43-.34-1.19-.82-2.16-.82-1.13,0-2.18,.76-2.18,1.86,0,2.68,5.62,2.14,5.62,5.92,0,2.07-1.54,3.43-3.81,3.43-1.46,0-2.35-.61-3.15-1.21-.17-.13-.26-.32-.26-.53Z"/><path class="cls-1" d="M265.66,137.15c.09-.23,.27-.42,.59-.42,.36,0,.63,.25,.63,.61,0,.09-.04,.19-.08,.28l-2.54,7c-1.35,3.75-2.62,4.74-4.38,4.74-1.4,0-2.03-.47-2.56-.93-.11-.1-.23-.26-.23-.49,0-.34,.32-.61,.63-.61,.13,0,.27,.06,.36,.13,.4,.32,.82,.68,1.8,.68,1.12,0,1.9-.48,2.89-3.06-.11-.08-.25-.3-.36-.51-1.08-2.07-2.77-6.75-2.87-7.06-.02-.05-.04-.11-.04-.22,0-.38,.3-.57,.65-.57s.49,.23,.59,.47c.27,.72,1.46,4.16,2.32,5.83,.09,.19,.19,.38,.28,.49,.46-1.27,1.58-4.25,2.33-6.37Z"/><path class="cls-1" d="M268.56,133.07c0-.36,.27-.62,.62-.62s.63,.26,.63,.62v9.2c0,1.73,.21,2.01,.97,2.01,.36,0,.63,.25,.63,.6s-.27,.61-.63,.61c-1.71,0-2.22-.74-2.22-3.23v-9.2Z"/><path class="cls-1" d="M273.28,137.94h-.95c-.36,0-.63-.27-.63-.63s.27-.59,.63-.59h.95v-1.98c0-.36,.26-.62,.62-.62s.63,.27,.63,.62v1.98h2.24c.36,0,.63,.23,.63,.59s-.27,.63-.63,.63h-2.24v4.31c0,1.88,.97,2.15,1.8,2.15,.42,0,.74-.15,.87-.23,.08-.04,.17-.08,.28-.08,.32,0,.61,.23,.61,.61,0,.26-.13,.45-.3,.55-.17,.09-.76,.36-1.41,.36-1.54,0-3.11-.42-3.11-3.36v-4.31Z"/><path class="cls-1" d="M280.19,133.92c0-.36,.26-.62,.62-.62s.63,.26,.63,.62v8.18c0,.36-.27,.63-.63,.63s-.62-.26-.62-.63v-8.18Zm0,10.44c0-.36,.26-.63,.62-.63s.63,.27,.63,.63v.63c0,.36-.27,.62-.63,.62s-.62-.26-.62-.62v-.63Z"/></g><g><g><path class="cls-1" d="M75.34,96.01c-9.83,0-17.02-8.48-17.02-20.03s7.62-20.1,17.63-20.1c6.45,0,10.14,2.27,11.37,3.26,.37,.25,.56,.62,.56,1.11,0,.67-.56,1.11-1.17,1.11-.31,0-.55-.07-.8-.25-.74-.62-3.93-2.83-9.95-2.83-8.6,0-15.12,7.68-15.12,17.7s6.08,17.63,14.5,17.63c3.75,0,6.94-.86,10.2-2.7,.25-.12,.43-.19,.68-.19,.68,0,1.23,.56,1.23,1.23,0,.43-.18,.8-.55,.99-3.81,2.08-7.37,3.07-11.55,3.07Z"/><path class="cls-1" d="M112.03,75.73c0-2.33-1.84-5.9-6.76-5.9-3.69,0-6.09,1.17-7.44,1.84-.24,.13-.43,.13-.68,.13-.61,0-1.04-.55-1.04-1.17,0-.31,.06-.62,.55-.99,1.23-.86,4.85-2.21,8.6-2.21,6.57,0,9.22,4.8,9.22,8.3v14.63c0,2.33,1.35,2.89,1.41,2.89,.61,0,1.04,.55,1.04,1.16,0,.81-.49,1.23-1.17,1.23-.24,0-2.52-.12-3.19-2.58-1.85,1.72-4.67,2.95-8.42,2.95-4.55,0-9.53-2.52-9.53-8.18s3.87-8.11,11.43-8.11h5.96v-4Zm0,6.33h-5.96c-6.02,0-8.91,1.84-8.91,5.77s3.63,5.77,7.01,5.77c3.56,0,6.51-1.23,7.86-2.89v-8.66Z"/><path class="cls-1" d="M125.36,70.2h-4.12c-.68,0-1.23-.43-1.23-1.17,0-.67,.55-1.23,1.23-1.23h4.18c.37-12.72,7.74-14.2,11-14.2,1.53,0,3.13,.25,4.73,.8,.49,.19,.8,.62,.8,1.17,0,.67-.56,1.11-1.17,1.11-.12,0-.31-.06-.67-.12-1.23-.31-2.34-.55-3.69-.55-3.14,0-8.3,1.54-8.61,11.8h8.36c.68,0,1.23,.55,1.23,1.23,0,.74-.55,1.17-1.23,1.17h-8.36v24.21c0,.74-.49,1.23-1.23,1.23-.67,0-1.23-.49-1.23-1.23v-24.21Z"/><path class="cls-1" d="M153.31,93.61c4.12,0,8.24-2.09,8.61-2.21,.25-.13,.49-.19,.61-.19,.68,0,1.17,.55,1.17,1.17,0,.49-.25,.8-.61,1.05-.12,.12-4.79,2.58-9.77,2.58-7.12,0-11.97-5.72-11.97-14.2s4.84-14.38,12.34-14.38c6.33,0,9.83,4.3,9.83,7.75,0,6.63-7.5,8.17-19.54,8.23,.25,5.53,3.75,10.2,9.33,10.2Zm-9.45-12.47c12.4-.06,17.13-1.78,17.13-5.96,0-2.27-2.52-5.35-7.31-5.35-5.65,0-9.64,3.93-9.82,11.31Z"/><path class="cls-1" d="M223.67,60.55c0,1.6-1.17,2.76-2.76,2.76s-2.77-1.22-2.77-2.76v-1.17c-1.29,0-5.72,.92-7.19,7.75-2.15,9.89-5.41,23.72-6.82,26.55-.86,1.72-2.83,1.97-3.69,1.97-.62,0-2.89-.19-3.75-1.97-1.48-3.07-4.37-15.49-6.33-24.09-2.21,8.98-5.35,21.75-6.82,24.34-.68,1.17-1.72,1.72-3.44,1.72-.92,0-2.83-.43-3.63-1.85-2.21-3.93-8.17-32.75-8.42-34.78-.06-.19-.06-.31-.06-.68,0-1.41,1.23-2.34,2.77-2.34s2.39,.55,2.77,2.09c-.12-.55,6.45,29.93,6.45,29.93,2.52-8.3,6.33-24.89,7.19-28.52,.24-1.53,1.66-2.52,3.26-2.52,1.78,0,3.01,1.05,3.32,2.52,1.78,7.93,4.67,22.19,6.7,28.21,1.29-5.22,3.44-13.65,4.92-21.39,2.15-11.06,10.08-12.35,12.97-12.35,3.69,0,5.35,2.33,5.35,4.42v2.15Zm-5.53,8.91c0-1.6,1.17-2.77,2.77-2.77s2.76,1.17,2.76,2.77v23.41c0,1.6-1.17,2.77-2.76,2.77s-2.77-1.17-2.77-2.77v-23.41Z"/><path class="cls-1" d="M243.21,90.67c2.89,0,6.27-1.72,7.19-2.09,.49-.25,1.11-.31,1.41-.31,1.54,0,2.71,1.29,2.71,2.7,0,1.23-.74,1.9-1.41,2.34-.25,.19-5.04,2.7-9.89,2.7-7.56,0-12.78-6.02-12.78-14.81s5.04-14.87,13.09-14.87c6.88,0,10.88,4.92,10.88,8.72,0,7.2-7,8.97-18,9.22,.8,3.5,3.07,6.39,6.82,6.39Zm5.41-15.61c0-1.35-1.66-3.38-5.1-3.38-4.12,0-6.69,2.83-7.31,7.5,8.85-.19,12.42-1.53,12.42-4.12Z"/><path class="cls-1" d="M277.93,77.7c0-4.79-1.41-6.02-5.77-6.02-2.64,0-4.42,.86-5.34,1.29v19.91c0,1.6-1.17,2.77-2.77,2.77s-2.77-1.17-2.77-2.77v-23.47c0-1.6,.99-2.71,2.58-2.71,1.23,0,1.97,.55,2.52,1.6,1.9-1.17,4.18-1.97,7.01-1.97,6.94,0,10.08,3.32,10.08,10.51v16.04c0,1.6-1.17,2.77-2.76,2.77s-2.77-1.17-2.77-2.77v-15.18Z"/></g><g><path class="cls-1" d="M54.36,.01h0c-5.84,.25-7.41,.32-35.65,72.93C-8.39,142.66,1.9,208.27,2,208.93c.26,1.56,1.74,2.62,3.3,2.37,.76-.12,1.42-.54,1.87-1.16,.44-.62,.62-1.38,.5-2.14-.1-.64-10.08-64.87,16.39-132.97C46.92,16.25,52.12,5.86,54.6,5.76c3.15-.14,8.6,1.14,14.58,3.42,4.44,1.69,6.09,3.54,6.11,3.56,1,1.19,2.81,1.36,4.02,.37,1.21-.99,1.4-2.78,.43-4-.24-.3-2.5-3.01-8.51-5.3C68.02,2.59,59.95-.22,54.36,.01Z"/><path class="cls-1" d="M53.46,15.8c-.11,.31-.16,.63-.16,.94,0,.43,.1,.87,.3,1.26,.34,.69,.92,1.2,1.65,1.45,2.87,1.02,10.05,4.45,10.05,8.39,0,.16-.01,.32-.04,.49-.48,3.14-4.09,4.4-9.13,5.84-2.31,.66-4.48,1.28-6.09,2.32-4.28,2.75-5.99,4.96-6.29,5.38,0,0-4.29,5.23-7,11.99-.28,.71-.27,1.49,.03,2.2,.3,.71,.86,1.26,1.57,1.54,.71,.29,1.5,.28,2.2-.03,.7-.3,1.25-.86,1.53-1.57,2.34-5.84,6.18-10.57,6.22-10.62,.16-.21,1.49-1.89,4.84-4.04,.89-.57,2.66-1.08,4.53-1.62,5.16-1.48,12.18-3.48,13.26-10.5,1.51-9.81-13.2-14.96-13.82-15.18-1.49-.51-3.13,.28-3.65,1.78Z"/><path class="cls-1" d="M39.96,96.46h0c-1.47,.58-2.2,2.25-1.62,3.72,.49,1.22,4.99,12.1,13.81,19.18,9.1,7.32,15.66,5.73,17.11,5.24,3.75-1.01,8.66-1.48,10.22-.61-.44,.66-2.58,2.75-12.83,7.62,0,0-2.11,1.02-2.11,1.02l-3.52,2.32c-4.55,3.35-6.01,3.69-7.82,1.86-3.12-3.17-5.8-7.56-7.76-10.77-1.47-2.41-2.2-3.59-2.97-4.36-2.83-2.83-8.96-3.93-12.35-2.99-2.49,.69-3.24,2.3-3.47,3.21-.29,1.18-.09,2.41,.11,3.71,.55,3.4,.49,4.67-2.25,5.55-7.62,2.44-10.77,3.45-11.95,8.63-.83,3.64-1.49,9.44-1.62,10.56-.17,1.61,.97,3.03,2.54,3.2,1.58,.17,3-.97,3.17-2.55,0-.07,.69-6.34,1.51-9.94,.39-1.71,.45-1.98,7.97-4.38,4.39-1.41,6.62-4.33,6.62-8.69,0-1.28-.19-2.44-.32-3.3,0,0,0,0,0,0,0,0-.03-.25-.06-.52,1.6-.14,4.87,.41,6.03,1.59,.33,.32,1.37,2.03,2.12,3.27,2.1,3.45,4.99,8.18,8.58,11.82,5.72,5.8,11.7,1.39,15.27-1.24,0,0,2.55-1.7,2.81-1.87,.1-.04,1.93-.93,1.93-.93,8.86-4.22,16.22-8.14,16.22-12.96,0-.31-.03-.61-.09-.92-.31-1.59-1.22-2.9-2.64-3.79-4.4-2.74-13.19-.54-14.9-.07-.53,.18-4.92,1.46-11.95-4.19-7.88-6.34-12.02-16.7-12.06-16.8-.58-1.47-2.25-2.2-3.72-1.63Z"/></g></g></g></g></svg>