<!-- EDITED -->
<svg version="1.1" id="SvgjsSvg1000" xmlns="http://www.w3.org/2000/svg" xmlns:xlink="http://www.w3.org/1999/xlink" x="0px" y="0px" width="32px" height="32px" viewBox="0 0 32 32" enable-background="new 0 0 32 32" xml:space="preserve">
    <path fill="none" stroke="#000000" stroke-width="1.25" stroke-miterlimit="10" d="M15.994,7.605  c-4.636,0.004-8.392,3.764-8.389,8.4s3.764,8.393,8.4,8.389c4.637-0.002,8.391-3.764,8.389-8.398  c-0.002-2.227-0.887-4.359-2.459-5.934C20.361,8.484,18.223,7.6,15.994,7.605 M23.889,15.994c0.004,4.357-3.525,7.893-7.883,7.896  c-4.357,0.002-7.893-3.527-7.896-7.885s3.527-7.893,7.884-7.895c2.094-0.002,4.102,0.828,5.584,2.309  C23.063,11.895,23.895,13.902,23.889,15.994"/>
    <path fill="#09171C" d="M29.248,8h-0.496C28.334,8,28,8.096,28,8.214v15.574C28,23.904,28.334,24,28.752,24h0.496  C29.666,24,30,23.904,30,23.788V8.214C30,8.096,29.666,8,29.248,8"/>
    <path fill="#09171C" d="M3.248,8H2.752C2.336,8,2,8.096,2,8.214v15.574C2,23.904,2.34,24,2.752,24h0.496C3.66,24,4,23.904,4,23.788  V8.214C4,8.096,3.664,8,3.248,8"/>
</svg>