<svg xmlns="http://www.w3.org/2000/svg" viewBox="0 0 133.83 167.16"><g id="Ebene_2" data-name="Ebene 2"><g id="Ebene_1-2" data-name="Ebene 1"><path d="M133.83,33.83v-.5h0V0H0V167.16H133.83V133.83h0v-.5h0V100.5h0V100h0V67.17h0v-.5h0V33.83ZM133.33.5V33.33H100.49V.5ZM100,.5V33.33H67.16V.5ZM66.66,114.83A16.48,16.48,0,0,0,52,100.5h14.7ZM33.33,62.11c-16,0-28.26-4.89-28.26-11.86S17.33,38.4,33.33,38.4Zm.5,38.39H48.66a16.47,16.47,0,0,0-14.83,16ZM50.31,105a11.94,11.94,0,1,1-11.94,11.94A11.89,11.89,0,0,1,50.31,105Zm-16.48-5V67.17H66.66V100ZM66.66,33.84H62.12V66.67H33.83V33.83H66.66ZM33.33,28.78c-16,0-28.26-4.9-28.26-11.86S17.33,5.07,33.33,5.06Zm0,5.06c-18.4,0-32.82,7-32.82,16.41S14.72,66.56,32.94,66.67H.5V33.83H33.33Zm0,33.33h-4.5V100H.5V67.17Zm-4.5,33.33v32.83H.5V100.5Zm5,16.81a16.47,16.47,0,0,0,14.77,16H33.83ZM66.66,119v14.33H52A16.47,16.47,0,0,0,66.66,119Zm.5-18.5h0a32.38,32.38,0,0,0,32.64,32.83H67.16Zm4.57-.5a11.86,11.86,0,0,1,23.72,0ZM100,128.78a28.22,28.22,0,0,1-27.93-23.72H100ZM83.59,83.59A16.45,16.45,0,0,0,67.17,100h0V67.17H100V99.75A16.44,16.44,0,0,0,83.59,83.59ZM71.74,66.67c0-16,4.89-28.27,11.85-28.27S95.45,50.67,95.45,66.67ZM83.59,33.84c-9.37,0-16.41,14.42-16.41,32.83h0V33.83H100V65.28C99.65,47.54,92.73,33.84,83.59,33.84ZM66.66.5V33.33H33.83V.5ZM33.33.5h0C14.93.51.51,7.55.51,16.92S14.77,33.25,33,33.33H.5V.5ZM.5,166.66V133.83H33.33v32.83Zm33.33,0V133.83H66.66v32.83Zm66.14,0V133.83H95.41v32.83H67.16V133.83H100v32.83Zm33.36,0H105a28.2,28.2,0,0,1,28.27-28.27v-4.56a32.37,32.37,0,0,0-32.81,31.67V133.83h32.84Zm0-33.33H100.49V100.5h32.84Zm0-33.33H100.49V67.17h32.84ZM105.07,66.67c0-16,4.89-28.27,11.86-28.27s11.85,12.27,11.85,28.27Zm28.26-1.48C133,47.5,126,33.84,116.93,33.84c-9.37,0-16.42,14.42-16.42,32.83h0V33.83h32.84Z"/></g></g></svg>