<?xml version="1.0" encoding="UTF-8"?>
<svg xmlns="http://www.w3.org/2000/svg" id="b" viewBox="0 0 153.2 32.14">
  <defs>
    <style>.d{fill:#444749;}</style>
  </defs>
  <g id="c">
    <path class="d" d="m23.09,30.44c-.4.28-.73.55-1.1.76-1.91,1.1-3.87,1.28-5.82.15-1.39-.8-2.04-2.1-2-3.69.04-1.61.82-2.79,2.24-3.55,1.27-.67,2.64-.84,4.05-.86.86-.01,1.73,0,2.58,0,.25-1.56-.5-2.71-1.97-2.9-.77-.1-1.59-.09-2.35.07-.52.11-.99.53-1.45.86-.51.36-1.08.39-1.53,0-.43-.37-.56-.96-.2-1.46.28-.39.65-.77,1.07-.98,2.04-1.03,4.16-1.15,6.28-.26,1.53.65,2.33,1.91,2.4,3.52.1,2.21.09,4.43.1,6.64,0,.79,0,1.58-.08,2.36-.07.69-.39.92-1.04.92-.66,0-.99-.3-1.09-.96-.03-.2-.05-.39-.08-.63m-.04-5c-1.4.07-2.79.09-4.17.23-.54.06-1.12.29-1.58.59-1.25.8-1.14,2.53.16,3.24.73.4,1.51.42,2.3.22,1.29-.32,2.09-1.25,2.86-2.24.46-.59.57-1.21.42-2.04"/>
    <path class="d" d="m2.25,19.62c1.03-.82,2.05-1.35,3.25-1.43,1.73-.11,3.28.26,4.29,1.84.51.78.6,1.68.61,2.59.02,2.62,0,5.24,0,7.86,0,.22-.03.43-.07.65-.11.7-.42.97-1.08.96-.65,0-.98-.3-1.06-.98-.04-.38-.06-.77-.07-1.16-.01-2.42-.03-4.83-.02-7.25.01-2.28-1.72-2.52-3.14-2.06-.8.26-1.33.88-1.84,1.51-.61.74-.94,1.51-.9,2.53.09,1.92.02,3.84.02,5.76,0,.23,0,.47-.04.69-.12.68-.42.95-1.04.97-.65.01-.96-.24-1.1-.94-.05-.24-.06-.49-.06-.74,0-5.53,0-11.06,0-16.6,0-.31.02-.62.08-.92.13-.64.45-.85,1.14-.8.57.04,1,.45,1,1.02.02,2,.01,4,.01,6v.52"/>
    <path class="d" d="m118.1,19.56c.34-.23.63-.44.93-.61,1.54-.91,3.16-1.05,4.82-.4,1.4.54,2.16,1.65,2.29,3.12.1,1.09.08,2.2.09,3.3.01,1.73,0,3.47,0,5.21,0,.35-.03.71-.09,1.06-.1.6-.42.84-1.03.85-.61,0-.95-.23-1.06-.82-.07-.41-.09-.83-.09-1.25-.02-2.45,0-4.9-.04-7.34-.03-1.88-1.36-2.72-3.15-2.04-.82.31-1.36.94-1.89,1.59-.58.71-.87,1.46-.83,2.41.08,1.98.02,3.96.01,5.95,0,.2-.01.4-.05.6-.13.64-.44.9-1.04.9-.65,0-.94-.24-1.07-.91-.05-.23-.07-.46-.07-.69,0-5.61,0-11.22,0-16.83,0-.2.01-.4.05-.6.14-.77.43-1.01,1.15-.97.62.04,1.03.46,1.04,1.13.02,1.95,0,3.9.01,5.86,0,.15.01.3.02.5"/>
    <path class="d" d="m42.66,25.56c.19.71.31,1.36.53,1.98.54,1.45,1.64,2.15,3.16,2.24,1.08.06,2.09-.08,2.97-.8.4-.33.85-.28,1.24.03.39.33.59.88.32,1.29-.27.41-.64.81-1.07,1.04-3.67,2.04-8.26-.02-9.14-4.12-.46-2.14-.4-4.25.64-6.24,1.19-2.27,3.47-3.15,5.79-2.98,2.95.21,5.27,2.58,5.25,6.16,0,.96-.27,1.24-1.2,1.37-.21.03-.43.03-.65.03-2.4,0-4.8,0-7.2,0h-.64m7.26-2.31c-.27-1.92-1.45-2.99-3.3-3-2.04-.01-3.4,1.08-3.7,3h6.99Z"/>
    <path class="d" d="m132.23,25.56c.22.78.37,1.48.63,2.13.53,1.33,1.58,1.97,2.98,2.08,1.13.09,2.19-.05,3.11-.81.4-.32.86-.26,1.23.07.4.35.57.97.25,1.38-.3.39-.7.76-1.13.99-3.71,1.94-8.17-.15-9.04-4.22-.4-1.88-.37-3.76.35-5.57,1.07-2.67,3.51-3.8,6.1-3.61,3.05.22,5.32,2.72,5.24,6.26-.02.84-.29,1.13-1.12,1.25-.24.03-.49.05-.74.05-2.4,0-4.8,0-7.21,0h-.65Zm.31-2.32h6.98c-.28-1.96-1.5-3.02-3.4-2.99-2,.03-3.39,1.19-3.58,2.99"/>
    <path class="d" d="m73.98,23.23c.19-.12.41-.22.58-.37,1.5-1.37,2.98-2.76,4.47-4.13.31-.28.61-.58,1.09-.52.48.05.82.28,1,.72.18.44.12.86-.24,1.19-1.37,1.26-2.73,2.52-4.1,3.78-.16.14-.32.29-.51.46.93,1,1.84,1.97,2.74,2.94.9.97,1.79,1.93,2.68,2.9.36.39.38.85.15,1.29-.22.45-.64.66-1.12.58-.28-.05-.57-.24-.77-.44-1.35-1.41-2.68-2.84-4.02-4.26-.52-.55-1.03-1.12-1.56-1.66-.12-.12-.27-.21-.5-.39-.02.29-.03.45-.03.61,0,1.44.01,2.88,0,4.33,0,.41-.06.83-.15,1.24-.12.51-.54.62-1.01.62-.46,0-.84-.14-.96-.63-.08-.33-.14-.67-.14-1.01,0-5.59,0-11.19,0-16.78,0-.18.03-.37.05-.55.12-.88.65-1.24,1.5-1.01.4.11.57.41.63.78.06.38.09.77.09,1.16,0,2.85,0,5.7,0,8.56v.5s.08.08.12.12"/>
    <path class="d" d="m57.63,19.79c.28-.2.53-.4.8-.58,1.86-1.23,3.85-1.39,5.89-.56,1.64.67,2.64,1.97,2.72,3.74.12,2.78.1,5.57.1,8.36,0,.83-.26,1.17-.81,1.29-.76.17-1.29-.18-1.39-.96-.05-.41-.05-.84-.05-1.25-.01-2.11.02-4.22-.04-6.32-.08-2.54-1.85-3.7-4.29-2.87-.95.32-1.6.98-2.14,1.77-.59.86-.93,1.76-.87,2.85.09,1.67.03,3.35.02,5.02,0,.29-.02.59-.07.88-.12.66-.4.9-1.02.91-.64,0-.98-.25-1.09-.9-.06-.32-.06-.65-.06-.97,0-3.32,0-6.63,0-9.95,0-.43.02-.87.1-1.29.1-.54.37-.73.9-.76.58-.03.99.19,1.15.67.09.28.1.57.16.92"/>
    <path class="d" d="m94.84,30.42c-.9.74-1.83,1.33-2.94,1.52-2.14.35-4.08.03-5.56-1.73-.77-.92-.98-2.03-1-3.18-.04-2.49-.02-4.99-.02-7.48,0-.2.04-.4.09-.6.12-.52.4-.74.96-.76.64-.02.96.16,1.08.71.08.36.11.73.11,1.1.03,2.4.02,4.81.07,7.2.04,1.54,1.02,2.47,2.55,2.57,1.62.11,2.87-.5,3.76-1.84.31-.47.58-.99.84-1.5.08-.17.1-.38.1-.58,0-2.03,0-4.06,0-6.09,0-.22.02-.43.06-.65.14-.71.39-.93,1.04-.94.67,0,.98.25,1.1.95.05.27.05.55.05.83,0,3.39,0,6.79,0,10.18,0,.37-.02.75-.09,1.11-.11.56-.4.78-.92.81-.57.03-1-.23-1.15-.74-.08-.27-.09-.57-.14-.91"/>
    <path class="d" d="m31.94,20.47c-1.04,0-2.03.02-3.02,0-.75-.02-1.15-.48-1.14-1.19.02-.54.23-.86.77-.94.52-.08,1.04-.08,1.57-.1.57-.02,1.15,0,1.81,0,0-.48-.01-.94,0-1.4.12-3.08,2.45-5.08,5.53-4.74.71.08,1.09.48,1.09,1.14,0,.66-.34,1-1.08,1.09-.52.06-1.05.07-1.56.2-1.2.3-1.72,1.01-1.74,2.24,0,.46,0,.93,0,1.46.22,0,.41,0,.61,0,1,.02,2.01,0,3.01.09.64.06.85.38.85,1.01,0,.66-.19.97-.84,1.07-.53.08-1.08.07-1.62.09-.63.01-1.26,0-1.94,0,0,.22,0,.39,0,.55.04,3.02.09,6.04.13,9.06,0,.32.01.65-.02.98-.07.63-.46.98-1.07,1.01-.62.02-.94-.24-1.07-.91-.06-.3-.07-.61-.08-.92-.06-3.11-.12-6.23-.18-9.34,0-.12-.02-.24-.03-.44"/>
    <path class="d" d="m103.46,25.53c.09.48.19,1.46.5,2.37.52,1.53,1.92,2.22,3.5,1.85.66-.16,1.12-.57,1.41-1.18.1-.21.19-.43.3-.63.28-.5.72-.69,1.24-.55.55.16.84.56.78,1.15-.14,1.59-1.1,2.56-2.49,3.13-2.28.94-5.64.44-6.87-2.96-.85-2.36-.88-4.78-.12-7.16.89-2.76,3.15-3.76,5.72-3.56,1.04.08,2,.41,2.77,1.15.53.5.83,1.11.85,1.85.02.5-.25.88-.7,1.04-.47.17-.94.03-1.25-.36-.04-.05-.08-.1-.1-.15-.46-1.14-1.4-1.33-2.48-1.28-1.12.06-1.93.58-2.45,1.57-.53,1.01-.58,2.1-.63,3.7"/>
    <path class="d" d="m142.14,8.25c.69.35,1.39.7,2.19,1.1-.34.24-.54.39-.78.57.91,1.09,1.79,2.16,3.41,2.23v-6.62c-.11.09-.22.15-.3.25-.53.62-1.06,1.24-1.6,1.85-.33.38-.81.44-1.09.14-.26-.28-.2-.73.16-1.05.73-.64,1.47-1.28,2.2-1.92.18-.16.36-.31.57-.48-.43-.46-.83-.75-1.42-.68-1.08.12-2.25-1.37-1.94-2.61.13-.52.51-.76,1.04-.79,1.26-.08,2.28.9,2.35,2.17.03.41.29.8.45,1.2.09,0,.19,0,.28-.01.11-.36.22-.72.33-1.08.06-.19.07-.44.2-.57.62-.64,1.26-1.25,1.9-1.86.05-.05.14-.06.21-.08.05.04.09.08.13.12-.56.58-1.12,1.17-1.68,1.75l.15.15c.75-.35,1.14-1.19,1.86-1.57.04.04.07.07.11.1-.08.11-.15.22-.25.32-.36.38-.73.74-1.07,1.13-.1.12-.14.3-.21.45.15-.08.32-.14.45-.25.37-.34.73-.7,1.09-1.04.1-.09.22-.17.33-.25.05.05.1.1.15.14-.56.59-1.11,1.17-1.67,1.76.05.05.11.11.16.16.71-.4,1.15-1.15,1.82-1.6.04.03.08.05.11.08-.05.1-.08.22-.15.29-.56.59-1.13,1.19-1.71,1.75-.14.14-.38.2-.59.27-.37.12-.76.22-1.14.33,0,.06-.01.13-.02.19.45.42.9.84,1.36,1.25.4.36.82.69,1.23,1.05.41.35.48.85.18,1.13-.29.26-.76.18-1.09-.21-.55-.64-1.1-1.29-1.74-2.04v6.62c1.06.18,2.51-.74,3.37-2.17-.21-.14-.42-.28-.67-.45.58-.58,1.29-.84,2-1.08.06-.02.24.1.25.17.07.72.1,1.43.16,2.28-.39-.17-.62-.27-.86-.37-1.18,1.67-2.71,2.82-4.82,2.81-2.11,0-3.65-1.14-4.82-2.85-.24.12-.47.23-.76.37v-2.39c.06-.05.13-.09.19-.14"/>
    <path class="d" d="m87.44,14.22c.04-.45.04-.9.12-1.34.11-.66.57-1.01,1.24-1.01.66,0,1.18.36,1.23,1.02.07.83.07,1.67,0,2.5-.06.68-.63,1.06-1.33,1.02-.71-.05-1.17-.49-1.24-1.21-.03-.32,0-.65,0-.97,0,0-.01,0-.02,0"/>
    <path class="d" d="m92.34,14.12c.04-.44.04-.91.14-1.36.14-.61.57-.88,1.2-.88.66,0,1.14.29,1.2.92.09.88.09,1.79,0,2.67-.06.63-.56.93-1.2.93-.63,0-1.08-.3-1.21-.93-.1-.43-.09-.89-.13-1.36"/>
  </g>
</svg>