<?xml version="1.0" encoding="UTF-8"?>
<svg id="Calque_2" xmlns="http://www.w3.org/2000/svg" viewBox="0 0 143.99 150.66"><defs><style>.cls-1{fill:#b09767;}</style></defs><g id="RC_Logo"><g><path class="cls-1" d="M60.88,63.71c-7.08,2.09-15.74,5.64-18.2,13.51-1.04,4.28,.32,8.37,3.72,11.06,3.68,2.95,9.39,3.97,13.57,2.04,2.68-1.23,4.74-3.32,5.64-6.56-2.75,1.97-7,1.88-9.63-.03-2.22-1.77-3.45-4.23-3.36-7.05,.45-5.42,6.17-9.46,10.89-10.83,1.54-.46,3.31-.82,5.13-.91-1.09,5.32-5.64,10.8-10.53,13.44,0,0,3.86,1.61,9.89-.35,0,0,.81,6.23,3.99,11.88,3.18-5.66,3.99-11.88,3.99-11.88,6.04,1.96,9.89,.35,9.89,.35-4.89-2.65-9.44-8.12-10.53-13.44,1.81,.09,3.59,.45,5.13,.91,4.72,1.37,10.44,5.42,10.89,10.83,.09,2.82-1.14,5.27-3.36,7.05-2.63,1.91-6.88,2-9.63,.03,.91,3.25,2.96,5.33,5.64,6.56,4.18,1.93,9.89,.91,13.57-2.04,3.4-2.69,4.76-6.78,3.72-11.06-2.46-7.87-11.12-11.42-18.2-13.51h0c11.02-1,21.46-3.93,29.49-11.88,5.99-6.37,9.85-15.38,6.35-24.16-2.13-6.01-8.16-9.94-14.29-10.28-14.65-.8-21.35,13.74-22.14,18.34,0,0,7.8-9.57,18.74-7.05,3.37,.78,6.66,3.58,7.58,7.14,1.54,6.51-1.04,12.51-5.81,17.02-6.94,5.78-15.47,8.01-24.41,8.78,.23-4.77,1.4-9.14,4.4-12.7,2.14-2.41,5.2-4.08,8.04-3.49,2.62,.54,3.63,3.07,3.43,4.78-.31,2.6-2.69,4.33-2.69,4.33,4.93-.49,9.97-4.56,11.23-9.25,1.49-5.86-3.45-12.37-11.43-10.52-11.6,2.69-15.1,16.09-15.74,27.02-.4,.02-.78,.05-1.17,.05-2.58-12.56,3.7-22.79,6.29-33.89,2.25-9.69-2.77-20.18-8.98-27.94-6.22,7.76-11.23,18.25-8.99,27.94,2.58,11.1,8.88,21.33,6.29,33.89-.38,0-.77-.03-1.16-.05-.63-10.93-4.14-24.33-15.74-27.02-7.97-1.85-12.92,4.66-11.43,10.52,1.27,4.69,6.3,8.76,11.23,9.25,0,0-2.38-1.73-2.69-4.33-.2-1.71,.81-4.24,3.42-4.78,2.84-.59,5.91,1.08,8.04,3.49,3,3.55,4.17,7.92,4.4,12.7-8.94-.77-17.46-3-24.41-8.78-4.77-4.5-7.35-10.51-5.81-17.02,.92-3.55,4.21-6.36,7.58-7.14,10.94-2.53,18.74,7.05,18.74,7.05-.78-4.6-7.49-19.14-22.14-18.34-6.13,.34-12.16,4.28-14.28,10.28-3.5,8.78,.36,17.79,6.35,24.16,8.03,7.95,18.47,10.88,29.49,11.88"/><path d="M127.23,121.05l2.35,3.42h-4.97l-.7-1.04c-1.56,.81-3.29,1.37-5.19,1.37-3.66,0-6.59-2.3-6.59-5.85,0-3.03,1.68-4.7,4.36-6.16-1.17-1.51-1.7-2.57-1.7-4.23,0-3.25,2.24-4.87,5.39-4.87,2.93,0,5,1.96,5.03,4.87,.03,2.04-1.45,3.89-3.04,5.01l3.1,4.54c1-.92,1.9-1.9,2.62-2.75l2.32,2.6c-.81,.98-1.81,2.04-2.96,3.08h0Zm-5.25-.47l-3.38-5.04c-1.56,.84-2.18,1.65-2.18,3.19s1.18,2.57,3.21,2.57c.72,0,1.53-.28,2.34-.72Zm-3.32-12.09c0,.67,.59,1.6,1.34,2.52,1.01-.75,1.73-1.68,1.73-2.57,0-1.04-.59-1.63-1.53-1.63s-1.53,.53-1.53,1.68Z"/><path d="M24.93,124.47l-5.69-9.71v9.71h-4.49v-20.54h7.35c4.29,0,7.04,2.59,7.04,6.13,0,3.07-1.88,5.09-4.57,5.83l5.44,8.58h-5.08Zm-2.83-16.74h-2.86v4.95h2.86c1.57,0,2.56-1.01,2.56-2.62,0-1.43-1.13-2.33-2.56-2.33"/><path d="M47.88,124.47v-20.54h4.49v16.74h7.29v3.8h-11.78Z"/><path d="M75.46,124.47l-1.57-5.18h-6.23l-1.6,5.18h-4.74l7.32-20.54h4.32l7.44,20.54h-4.94Zm-4.21-13.99c-.22-.73-.45-1.66-.45-1.66,0,0-.2,.9-.42,1.66l-1.54,5.01h3.93l-1.52-5.01h0Z"/><path d="M87.41,103.93h-4.49v20.54h4.49v-20.54Z"/><path d="M96.93,124.81c-2.83,0-4.91-1.04-6.87-2.56l2.33-3.15c1.21,.96,2.94,1.77,4.63,1.77,2.05,0,2.61-.71,2.61-1.94,0-2.05-3.73-2.76-5.44-3.71-2.05-1.13-3.68-2.42-3.68-5.68,0-4.22,3.68-5.94,7.29-5.94,1.94,0,4.27,.53,5.92,1.77l-2.02,3.35c-.9-.68-2.41-1.18-3.9-1.18-2.07,0-2.8,1.18-2.8,2,0,1.86,2.61,2.42,4.99,3.46,1.99,.87,4.12,2.28,4.12,5.65,0,3.88-2.75,6.16-7.18,6.16"/><path d="M10.46,150.65c-6.23,0-10.46-4.14-10.46-10.72,0-6.16,4.63-10.49,10.38-10.49,3,0,5.27,.87,7.38,3.04l-2.53,2.95c-1.37-1.38-2.94-2.05-4.85-2.05-3.51,0-5.75,2.79-5.75,6.56,0,4.22,2.05,6.78,5.84,6.78,2.58,0,3.84-1.1,5.16-2.33l2.58,2.95c-1.91,2.05-4.18,3.32-7.74,3.32"/><path d="M53.2,150.32l-1.57-5.18h-6.23l-1.6,5.18h-4.74l7.32-20.54h4.32l7.44,20.54h-4.94Zm-4.21-13.99c-.22-.73-.45-1.66-.45-1.66,0,0-.2,.9-.42,1.66l-1.54,5.01h3.93l-1.52-5.01h0Z"/><path d="M57.58,129.77v3.8h4.07v16.74h4.49v-16.74h3.96v-3.8h-12.52Z"/><path d="M101.12,150.32l-1.57-5.18h-6.23l-1.6,5.18h-4.74l7.32-20.54h4.32l7.44,20.54h-4.94Zm-4.21-13.99c-.22-.73-.45-1.66-.45-1.66,0,0-.2,.9-.42,1.66l-1.54,5.01h3.93l-1.52-5.01h0Z"/><path d="M115.51,150.65c-4.71,0-8.75-3.04-8.75-8.67v-12.21h4.52v12.21c0,2.79,1.77,4.78,4.24,4.78s4.52-2,4.52-4.78v-12.21h4.46v12.21c0,5.63-4.21,8.67-8.97,8.67Z"/><path d="M137.76,129.77l-2.95,5.38-3.11-5.38h-4.97l5.56,9.34-6.57,11.2h4.99l4.1-7.26,4.15,7.26h5.02l-6.71-11.2,5.5-9.34h-5.02Z"/><path d="M72.38,129.77v20.54h12.35v-3.8h-7.85v-4.57h7.43v-3.81h-7.43v-4.57h7.43v-3.8h-11.92Z"/><path d="M36.7,120.67v-4.57h7.43v-3.81h-7.43v-4.56h7.43v-3.8h-11.92v20.54h12.34v-3.8h-7.86Z"/><path d="M32.24,129.77v8.36h-7.12v-8.36h-4.49v20.54h4.49v-8.36h7.12v8.36h4.49v-20.54h-4.49Z"/></g></g></svg>