<?xml version="1.0" encoding="UTF-8"?>
<!-- Generator: Adobe Illustrator 22.0.1, SVG Export Plug-In . SVG Version: 6.00 Build 0)  -->
<svg version="1.1" id="Ebene_1" xmlns="http://www.w3.org/2000/svg" xmlns:xlink="http://www.w3.org/1999/xlink" x="0px" y="0px" viewBox="0 0 310.5 108.9" style="enable-background:new 0 0 310.5 108.9;" xml:space="preserve">
<style type="text/css">
	.st0{display:none;}
</style>
<g id="Hintergrund">
</g>
<g id="Hilfslinien_anzeigen" class="st0">
</g>
<g id="Vordergrund">
</g>
<g id="Saarbahn_x2F_Bahn_1_">
	<g>
		<rect width="7.7" height="22.5"/>
		<rect x="21.2" width="7.7" height="22.5"/>
		<rect x="42.4" width="7.7" height="22.5"/>
		<rect x="63.7" width="7.7" height="22.5"/>
		<rect x="84.9" width="7.7" height="22.5"/>
		<rect x="106.1" width="7.7" height="22.5"/>
		<rect y="28.8" width="7.7" height="22.5"/>
		<rect x="21.2" y="28.8" width="7.7" height="22.5"/>
		<rect x="42.4" y="28.8" width="7.7" height="22.5"/>
		<rect x="63.7" y="28.8" width="7.7" height="22.5"/>
		<rect x="84.9" y="28.8" width="7.7" height="22.5"/>
		<rect x="106.1" y="28.8" width="7.7" height="22.5"/>
		<rect y="57.6" width="7.7" height="22.5"/>
		<rect x="21.2" y="57.6" width="7.7" height="22.5"/>
		<rect x="42.4" y="57.6" width="7.7" height="22.5"/>
		<rect x="63.7" y="57.6" width="7.7" height="22.5"/>
		<rect x="84.9" y="57.6" width="7.7" height="22.5"/>
		<rect x="106.1" y="57.6" width="7.7" height="22.5"/>
		<rect y="86.4" width="7.7" height="22.5"/>
		<rect x="21.2" y="86.4" width="7.7" height="22.5"/>
		<rect x="42.4" y="86.4" width="7.7" height="22.5"/>
		<rect x="63.7" y="86.4" width="7.7" height="22.5"/>
		<rect x="84.9" y="86.4" width="7.7" height="22.5"/>
		<rect x="106.1" y="86.4" width="7.7" height="22.5"/>
	</g>
</g>
<g>
	<path d="M163,48l-8.3-20.7V48h-7.9V5.7h7.9v16.5l8.5-16.5h8L161.6,24l9.9,24.1H163z"/>
	<path d="M174.3,48V5.7h7.8v35.9h11.5V48H174.3z"/>
	<path d="M212.8,48l-1-6.9h-7.2l-1.1,6.9h-7.8l8.2-42.4h8.9l7.9,42.4H212.8z M208.4,16.4l-2.8,18.2h5.4L208.4,16.4z"/>
	<path d="M233.3,5.7v31.5c0,2.8,0.2,5.1,3.7,5.1c3.5,0,3.6-2.6,3.6-5.2V5.7h7.9v32.8c0,10.4-8.9,10.4-11.7,10.4   c-7.3,0-11.3-3.7-11.3-10.6V5.7H233.3z"/>
	<path d="M263.5,33.1v5.8c0,1.8,0.2,4,3.7,4c3.4,0,3.9-1.7,3.9-5.2v-1.4c0-2.9-0.9-4.1-2.7-5.3L261,26c-2.3-1.6-5-3.8-5-10v-0.8   c0-7.4,4.4-10.4,11.5-10.4c5.3,0,10.9,2.3,10.9,9.1v4.2h-7.7v-3.7c0-1.9-0.5-3.7-3.5-3.7c-2.2,0-3.5,0.8-3.5,4.6   c0,2,0.1,3.5,2.5,5.2l7.6,5.2c3.1,2.1,5.2,5,5.2,8.8v4c0,5.8-2,10.6-11.5,10.6c-5.6,0-11.8-1.8-11.8-9.7v-6.2H263.5z"/>
	<path d="M146.8,106.1V63.7h20.5v6.4h-12.7v10h12v6.4h-12v13h13.3v6.5H146.8z"/>
	<path d="M189.9,63.7c5.3,0,7.6,2.4,7.6,7.7v5.8c0,4.2-0.9,6.4-5.5,7.2c5.1,1.1,5.8,5.1,5.8,7.4v8.6c0,1,0.1,4.7,1.8,5.6h-8.6   c-0.5-1.1-1.1-1.9-1.1-4.1v-9.9c0-3.2-0.5-4.7-3.9-4.7h-3.9v18.7h-7.8V63.7H189.9z M182.1,81.3h4.1c2.7,0,3.6-1,3.6-3.9v-4.2   c0-2.8-1.1-3.5-3.5-3.5h-4.2V81.3z"/>
	<path d="M213.1,70.2v10.6h12.1v6.3h-12.1v18.9h-7.9V63.7H226v6.5H213.1z"/>
	<path d="M229.9,73.2c0-6.3,2.8-10.4,11.9-10.4c7.1,0,11.6,3.1,11.6,9.7v24.5c0,7.4-4.8,9.9-11.6,9.9c-7.3,0-11.8-2.8-11.8-9.8V73.2   z M245.5,74c0-2.2,0-5.3-3.8-5.3c-4,0-4,3.2-4,5.6v21.4c0,2.4,0.1,5.2,4,5.2s3.8-2.9,3.8-5V74z"/>
	<path d="M276.8,63.7c5.3,0,7.6,2.4,7.6,7.7v5.8c0,4.2-0.9,6.4-5.5,7.2c5.1,1.1,5.8,5.1,5.8,7.4v8.6c0,1,0.1,4.7,1.8,5.6h-8.6   c-0.5-1.1-1.1-1.9-1.1-4.1v-9.9c0-3.2-0.5-4.7-3.9-4.7H269v18.7h-7.8V63.7H276.8z M269,81.3h4.1c2.7,0,3.6-1,3.6-3.9v-4.2   c0-2.8-1.1-3.5-3.5-3.5H269V81.3z"/>
	<path d="M302.7,69.8v36.2h-7.9V69.8H287v-6.1h23.5v6.1H302.7z"/>
</g>
</svg>