<?xml version="1.0" encoding="UTF-8"?>
<!-- Generator: $$$/GeneralStr/196=Adobe Illustrator 27.6.0, SVG Export Plug-In . SVG Version: 6.00 Build 0)  -->
<svg xmlns="http://www.w3.org/2000/svg" xmlns:xlink="http://www.w3.org/1999/xlink" version="1.1" id="Wort-Bildmarke" x="0px" y="0px" viewBox="0 0 462.6 514.3" style="enable-background:new 0 0 462.6 514.3;" xml:space="preserve">
<style type="text/css">
	.st0{fill:#00FF08;}
</style>
<g id="Komu_00000142896623627116499610000017613355500048331188_">
	<path d="M4.6,436.3c-3.5,27.2-4.2,45.6-2.1,72.9c0.4,5.3,8.7,5.4,8.3,0c-2.1-27.3-1.4-45.7,2.1-72.9C13.6,431,5.3,431.1,4.6,436.3"/>
	<path d="M62.6,499.5c-8.9-0.6-14.9-0.3-23.3-3.3c-7.3-2.7-15.8-7.2-16-15.9c-0.2-8.3,5.3-16.5,10.4-22.8c3.6-4.5,7.1-7.3,11.4-10   c1.7-1,3-2,4.1-3c3-2.6,0.5-8-2.9-6.7c-3.9,1.5-17.2,7.1-28.5,28.8c-3.8,7.3-4.1,17.4,0.4,24.8c4.1,6.8,11.2,11.3,18.7,13.1   c10,2.4,15.9,2.8,25.6,2.9C67.5,507.4,68.1,499.9,62.6,499.5"/>
	<path d="M462.2,509c-3.5-27.2-3.1-36.1-1.5-69.9c0.2-3.9-7.6-4.3-8.3,0.4c-0.1,0.9-1.9,7.9-3.4,13.1c-2.4,8.6-5.7,20.3-18,36.6   c-3,4-9,9.5-19.2,8.8c-8-0.5-13.7-7.6-17.3-16.9c-4.2-10.6-7.2-28-9.3-41.5c-0.6-3.6-7.5-4-7.5,1.4c2.3,24.3,5.9,46.1,19.4,59.2   c5.9,5.8,15.1,7.9,23.4,5.9c7.7-1.9,14.1-7.2,18.6-13.4c6.7-9.1,7.6-12.2,11.9-21.5c0.1,12.7,1,23.1,2.9,38.1   C454.6,514.7,462.9,514.3,462.2,509z"/>
	<path d="M173.1,485.6c-3.7,5.9-7.6,12.5-13.7,16.1c-6.1,3.6-12.7,1.5-18.2-2.2c-9.8-6.7-19.4-20.1-20-32.3   c-0.7-15.6,13.5-23.6,27.1-25c9.5-1,21.6-1.9,29.6,4.4C190.5,456.5,179.4,475.4,173.1,485.6 M188.1,445   c-8.4-12.2-25.3-12.8-38.6-11.5c-7.3,0.7-14.5,2-20.9,5.7c-7.9,4.6-13.9,12.5-15.5,21.6c-2.8,16.3,8.3,33.9,20.6,43.8   c7.5,6,17.1,10,26.6,6.3c9.4-3.7,15.2-12.7,20.3-20.9C188.4,477.4,197.9,459.1,188.1,445"/>
	<path d="M328.6,441.9c-0.4-4.1-5.9-6.3-8.2-2.2c-8.3,14.9-18,30-37.4,30.6c-19.8,0.6-25.8-19.9-31.6-34.4c-1.8-4.5-8.3-4-8.6,1.2   c-1.4,26.6-2.7,45.2-4.1,71.8c-0.3,5.6,8.5,5.6,8.8,0c1-19.9,2-35.9,3.1-55.8c6.2,13.6,14.9,25.9,31.4,26.1   c18.3,0.2,30.6-12.8,39.9-27.1c1.2,18,1.8,33.1,1.2,51.1c-0.2,5.6,8.6,5.6,8.8,0C332.6,480.4,330.6,464.6,328.6,441.9"/>
</g>
<path id="Bildmarke" class="st0" d="M321.3,228.8c-15.9,25.4-32.8,54.4-59.5,70.1c-26.6,15.7-55,6.7-78.8-9.7  c-42.4-29.2-84.3-87.3-86.7-140.3C93.1,81.1,154.7,46.5,213.9,40.5c41.2-4.2,93.9-8.1,128.6,19.1C397.1,102.4,349,184.6,321.3,228.8   M386.7,52.5C350-0.2,276.8-3.1,218.8,2.5c-31.7,3-63,8.7-90.9,24.9c-34.1,19.8-60.6,54.4-67.2,93.7c-12,70.8,36,147.2,89.5,190.1  c32.4,26.1,74.3,43.5,115.4,27.4c40.8-16,65.8-55.3,88.1-90.8C387.8,193.3,429.1,113.6,386.7,52.5"/>
</svg>