<svg version="1" xmlns="http://www.w3.org/2000/svg" width="933.333" height="933.333" viewBox="0 0 700.000000 700.000000"><path d="M205.7 93c-6.4 1.7-13.9 6-19.8 11.7-24.3 23.2-14.9 64.5 17.2 75.3 5.4 1.9 8 2.1 16.1 1.8 8.5-.4 10.6-.9 16.5-3.8 12.8-6.3 22.6-19.2 25.1-33 1.5-8.2-.2-19.9-4-28-4.2-8.7-12.3-16.7-21.3-21-6.1-2.9-8.1-3.4-16.5-3.6-5.2-.2-11.2.1-13.3.6zM441.9 93.9c-18.6 4-38.4 14.8-55.1 29.8-8.8 7.9-20.8 20.9-20.8 22.4 0 1.7 1.2.9 7.3-4.7 20.1-18.4 44.7-26.6 69.8-23.4 14.9 1.9 27.5 6.6 38.6 14.1 2.3 1.6 4.7 2.9 5.3 2.9.6 0 4.1-2.5 7.8-5.6 7.1-5.9 21.9-13.9 27.8-15 1.9-.3 3.3-1.1 3.2-1.6-.6-1.6-13.7-9.3-21.8-12.7-13.6-5.8-21-7.3-38-7.7-12.5-.3-17.2 0-24.1 1.5zM298.5 133.4c-7.2 1.8-12.6 4.9-18 10.3-13 12.9-15.3 34-5.4 49.4 15.5 24.2 50.3 24.2 65.8 0 4.6-7.1 6.4-14.1 5.9-23.5-1.1-24.9-24.2-42.2-48.3-36.2z"/><path d="M421 140.7c-13.8 2.3-29.3 11.6-37.8 22.5-11.4 14.8-15.9 34.1-12.2 52.4 1.9 9.4 8.2 21.5 15.1 28.9 22.1 23.5 55.1 26.8 81.3 8.1 18.9-13.5 28.8-38.7 24.2-61.7-4.3-21.2-18.3-38.5-37.4-46.3-10.1-4-23.1-5.6-33.2-3.9zM532.3 156c-31 11.3-36 53.2-8.5 70.9 19.9 12.7 46.3 4.8 56.6-16.9 2.8-5.9 3.1-7.4 3.1-16.5s-.3-10.6-3.1-16.5c-3.9-8.3-11.1-15.5-19.4-19.4-8.4-4-20.5-4.7-28.7-1.6zM231.1 194.1c-9.5 1.9-20.5 9.7-25.5 18.4-11.8 20.1-3.8 46.7 17 56.2 26.5 12.1 55.6-6.6 55.5-35.7-.1-19.9-12.8-35.3-32.1-39-6-1.1-8.7-1.1-14.9.1zM319.7 223.1c-9.4 2.2-20 9.6-25.6 17.7-6.4 9.5-8.4 16.8-7.9 28.7.4 8.8.9 10.9 3.8 17 4.4 9.1 12.3 17.1 21.5 21.6 6.8 3.3 7.3 3.4 19 3.4 11.6-.1 12.2-.2 19-3.5 27.2-13.2 34-49 13.5-71.2-10.9-12-27.9-17.3-43.3-13.7zM508.2 242.1c-12.2 1.6-24.6 11-30 22.7-3.3 7.3-4.2 20.1-1.9 28 8.5 28.3 44.2 37.4 65 16.5 8.5-8.4 12.3-18.6 11.5-30.6-1.5-23.2-21.6-39.7-44.6-36.6zM406 279.9c-17.4 5.7-31.4 20.8-35.5 38.2-6.5 27.8 10.5 56.2 38 63.5 6.7 1.8 18.7 1.7 26-.1 17-4.4 32.4-20.1 37.1-37.8 1.8-6.9 1.8-19.9-.1-27.2-1.9-7.1-7.8-17.5-13.2-22.9-5.6-5.7-14.8-11.4-22.1-13.6-8.4-2.6-22.4-2.6-30.2-.1zM192.3 280.9c-33.6 9.6-44.4 51.1-19.8 75.6 16.9 17 43.5 17.8 60.6 1.8 11.4-10.6 15.3-20.2 14.7-35.9-.3-9.3-.6-10.7-4.1-17.6-6.3-12.9-18.5-22.2-32.3-24.7-7.7-1.5-11.7-1.3-19.1.8zM297.6 324c-20.3 3.6-37 15.8-45.5 33.1-13 26.4-7.5 55.8 14.1 75.3 25.8 23.4 66.8 19.8 88.4-7.6 12.1-15.4 16.4-35.9 11.4-55.3-5.2-20.4-22.2-37.8-42.9-43.9-6.8-2-19.1-2.8-25.5-1.6zM213 427.9c-14.5 4.6-24.4 16.2-27.1 31.5-3.3 19.1 8.5 38.5 27 44.2 5.9 1.8 17.3 1.8 23.2 0 18.1-5.6 30.3-25.3 27-43.7-4.3-24.5-27.4-39.3-50.1-32zM303 462.4c-8.2 2.3-13.5 5.2-19.7 10.9-18.6 17.3-19.2 46.9-1.4 64.8 6.5 6.4 15.7 11.3 24.9 13 12.9 2.4 27.9-2.7 38.1-12.8 18.3-18.4 17.4-48.2-2.1-65.8-10.8-9.7-26.6-13.7-39.8-10.1zM211.5 520.4c-17 4.1-33 19.6-38 36.9-2.1 7.4-2.1 21 0 28.4 7.3 25.2 31.8 41.8 56.7 38.3 17.9-2.6 32.4-13.3 40.4-29.7 16.7-34.5-9.3-75.6-47.6-75.2-3.6 0-8.8.6-11.5 1.3z"/></svg>