<?xml version="1.0" encoding="UTF-8"?>
<svg width="143px" height="105px" viewBox="0 0 143 105" version="1.1" xmlns="http://www.w3.org/2000/svg" xmlns:xlink="http://www.w3.org/1999/xlink">
    <title>icons-logo-en</title>
    <defs>
        <polygon id="path-1" points="0 105 142.693096 105 142.693096 0 0 0"/>
    </defs>
    <g id="Page-1" stroke="none" stroke-width="1" fill="none" fill-rule="evenodd">
        <g id="Logo" transform="translate(-29.000000, -48.000000)">
            <g id="icons-logo-en" transform="translate(29.000000, 48.000000)">
                <polygon id="Fill-1" fill="#000000" points="56.5338265 20.2726713 58.8510357 14.2760171 61.2290192 20.2726713 62.3796565 20.2726713 64.973315 12.6428904 63.7304045 12.6428904 61.7663539 18.6247216 59.4335805 12.6428904 58.2833139 12.6428904 56.0124266 18.5943344 54.0791338 12.6428904 52.8206591 12.6428904 55.3524315 20.2726713"/>
                <g id="Group-78">
                    <path d="M70.2548695,13.5584715 C71.8965194,13.5584715 73.1242363,14.8710503 73.1242363,16.457855 C73.1242363,18.0602238 71.8965194,19.3572384 70.2548695,19.3572384 C68.6895582,19.3572384 67.4625825,18.0602238 67.4625825,16.457855 C67.4625825,14.8554861 68.6895582,13.5584715 70.2548695,13.5584715 M70.1937246,20.4256078 C71.1757499,20.4256078 72.3567743,19.9375598 73.0167694,19.0214969 L73.0167694,20.2729307 L74.1981644,20.2729307 L74.1981644,12.6427792 L73.0167694,12.6427792 L73.0167694,13.894213 C72.3567743,12.9937143 71.1757499,12.4901021 70.1937246,12.4901021 C67.9076437,12.4901021 66.2656233,14.2762765 66.2656233,16.457855 C66.2656233,18.6394335 67.9380309,20.4256078 70.1937246,20.4256078" id="Fill-2" fill="#000000"/>
                    <path d="M79.4195004,19.3877368 C78.3452018,19.3877368 77.6088681,18.9604631 76.9800013,18.2278352 L76.0439273,19.0519953 C76.8262124,19.952494 77.9157046,20.425719 79.3579848,20.425719 C81.4139382,20.425719 82.4267213,19.2658174 82.4267213,18.1062864 C82.4267213,16.5494983 81.0000053,16.1529824 79.726337,15.8628217 C78.5453126,15.5730316 77.6548194,15.4503711 77.6548194,14.6725329 C77.6548194,14.0166141 78.2229118,13.4818736 79.3272271,13.4818736 C80.2784946,13.4818736 80.8921678,13.7720342 81.4139382,14.3823722 L82.3192544,13.6497443 C81.5984849,12.856342 80.5701376,12.4753903 79.3272271,12.4753903 C77.5629167,12.4753903 76.4889886,13.5433891 76.4889886,14.6877265 C76.4889886,16.1829991 77.8697533,16.5650625 79.0970996,16.8548526 C80.1562047,17.0986913 81.2605199,17.2665621 81.2605199,18.1062864 C81.2605199,18.807786 80.6316532,19.3877368 79.4195004,19.3877368" id="Fill-4" fill="#000000"/>
                    <path d="M87.2650304,19.3877368 C86.1907317,19.3877368 85.454398,18.9604631 84.8255312,18.2278352 L83.8894573,19.0519953 C84.6717424,19.952494 85.7612346,20.425719 87.2035148,20.425719 C89.2594682,20.425719 90.2722513,19.2658174 90.2722513,18.1062864 C90.2722513,16.5494983 88.8455353,16.1529824 87.571867,15.8628217 C86.3908425,15.5730316 85.5003494,15.4503711 85.5003494,14.6725329 C85.5003494,14.0166141 86.0684418,13.4818736 87.172757,13.4818736 C88.1240246,13.4818736 88.7376978,13.7720342 89.2594682,14.3823722 L90.165155,13.6497443 C89.4440149,12.856342 88.4156676,12.4753903 87.172757,12.4753903 C85.4084467,12.4753903 84.3345186,13.5433891 84.3345186,14.6877265 C84.3345186,16.1829991 85.7152832,16.5650625 86.9426296,16.8548526 C88.0017346,17.0986913 89.1060499,17.2665621 89.1060499,18.1062864 C89.1060499,18.807786 88.4771831,19.3877368 87.2650304,19.3877368" id="Fill-6" fill="#000000"/>
                    <path d="M95.9141535,13.5430926 C97.4023851,13.5430926 98.4151682,14.3828169 98.6297315,15.7557995 L93.1522536,15.7557995 C93.4590902,14.4743491 94.5333889,13.5430926 95.9141535,13.5430926 M95.9760396,20.4257931 C97.6940281,20.4257931 98.8906167,19.6320202 99.5965632,18.3042479 L98.5689571,17.8006356 C98.093138,18.7318921 97.2185796,19.3726173 95.9760396,19.3726173 C94.4411155,19.3726173 93.244527,18.3498287 93.0911087,16.838992 L99.8422548,16.838992 L99.8422548,16.3357503 C99.8422548,14.0007535 98.1238958,12.4902874 95.9141535,12.4902874 C93.6125085,12.4902874 91.9404714,14.2301398 91.9404714,16.5191852 C91.9404714,18.7622793 93.5357994,20.4257931 95.9760396,20.4257931" id="Fill-8" fill="#000000"/>
                    <path d="M103.245547,16.320075 C103.245547,14.5505765 103.905913,13.74161 105.562756,13.74161 L106.314654,13.74161 L106.314654,12.6428534 L105.608707,12.6428534 C104.503651,12.6428534 103.690238,13.0704976 103.230353,13.8331422 L103.230353,12.6428534 L102.048958,12.6428534 L102.048958,20.2726342 L103.245547,20.2726342 L103.245547,16.320075 Z" id="Fill-10" fill="#000000"/>
                    <path d="M109.28478,17.3584278 C109.28478,19.631909 109.88326,20.2726342 112.12376,20.2726342 L112.292742,20.2726342 L112.292742,19.1590546 C110.773382,19.1590546 110.48211,18.8996517 110.48211,17.3428636 L110.48211,13.7112228 L112.292742,13.7112228 L112.292742,12.6428534 L110.48211,12.6428534 L110.48211,10.1863078 L109.28478,10.8422266 L109.28478,12.6428534 L107.965531,12.6428534 L107.965531,13.7112228 L109.28478,13.7112228 L109.28478,17.3584278 Z" id="Fill-12" fill="#000000"/>
                    <path d="M117.583302,20.4253484 C118.687988,20.4253484 119.593674,19.9217362 120.130268,19.143898 L120.130268,20.2726713 L121.296469,20.2726713 L121.296469,12.6428904 L120.115074,12.6428904 L120.115074,16.8700462 C120.115074,18.2589635 119.086727,19.3573496 117.690769,19.3573496 C116.156215,19.3573496 115.389124,18.3653187 115.389124,16.8852398 L115.389124,12.6428904 L114.192535,12.6428904 L114.192535,16.8852398 C114.192535,19.0823825 115.342802,20.4253484 117.583302,20.4253484" id="Fill-14" fill="#000000"/>
                    <path d="M125.063037,16.320075 C125.063037,14.5505765 125.723402,13.74161 127.380246,13.74161 L128.132144,13.74161 L128.132144,12.6428534 L127.426197,12.6428534 C126.321141,12.6428534 125.507727,13.0704976 125.047843,13.8331422 L125.047843,12.6428534 L123.866448,12.6428534 L123.866448,20.2726342 L125.063037,20.2726342 L125.063037,16.320075 Z" id="Fill-16" fill="#000000"/>
                    <path d="M131.206884,15.969881 C131.206884,14.4434802 132.204844,13.5433521 133.55448,13.5433521 C134.843712,13.5433521 135.702707,14.351948 135.702707,15.572624 L135.702707,20.2726342 L136.884472,20.2726342 L136.884472,15.8320269 C136.884472,14.3978994 137.881691,13.5433521 139.139795,13.5433521 C140.52056,13.5433521 141.379925,14.4434802 141.379925,15.7101075 L141.379925,20.2726342 L142.576513,20.2726342 L142.576513,15.7864461 C142.576513,13.8331422 141.365102,12.4901762 139.155359,12.4901762 C137.866127,12.4901762 136.869279,13.1157078 136.378266,14.0469643 C135.948398,13.1309014 135.027518,12.4901762 133.647124,12.4901762 C132.557632,12.4901762 131.698267,12.9482076 131.19169,13.6808356 L131.19169,12.6428534 L130.025859,12.6428534 L130.025859,20.2726342 L131.206884,20.2726342 L131.206884,15.969881 Z" id="Fill-18" fill="#000000"/>
                    <path d="M53.3116717,23.9670505 L53.3116717,35.1065528 L54.4930667,35.1065528 L54.4930667,30.8797676 C54.4930667,29.4912209 55.521414,28.3924643 56.9173722,28.3924643 C58.4519258,28.3924643 59.2190172,29.3844951 59.2190172,30.8642035 L59.2190172,35.1065528 L60.4156058,35.1065528 L60.4156058,30.8642035 C60.4156058,28.6666902 59.1423081,27.3240948 57.0859841,27.3240948 C55.9353469,27.3240948 55.0148371,27.8277071 54.4778731,28.589981 L54.4778731,23.9670505 L53.3116717,23.9670505 Z" id="Fill-20" fill="#000000"/>
                    <path d="M66.5240627,34.1907864 C64.959122,34.1907864 63.7465986,32.8941424 63.7465986,31.2917736 C63.7465986,29.6890341 64.959122,28.3923901 66.5240627,28.3923901 C68.0890034,28.3923901 69.3163498,29.6890341 69.3163498,31.2917736 C69.3163498,32.8941424 68.0890034,34.1907864 66.5240627,34.1907864 M66.5240627,27.3240207 C64.314691,27.3240207 62.5503806,29.0483089 62.5503806,31.2917736 C62.5503806,33.5348676 64.314691,35.2595264 66.5240627,35.2595264 C68.7334344,35.2595264 70.513309,33.5348676 70.513309,31.2917736 C70.513309,29.0483089 68.7334344,27.3240207 66.5240627,27.3240207" id="Fill-22" fill="#000000"/>
                    <path d="M73.1029283,25.6761452 L73.1029283,27.476772 L71.7836791,27.476772 L71.7836791,28.5451414 L73.1029283,28.5451414 L73.1029283,32.1923464 C73.1029283,34.4658276 73.7014078,35.1065528 75.9419079,35.1065528 L76.1108903,35.1065528 L76.1108903,33.9929732 C74.5915304,33.9929732 74.300258,33.7335703 74.300258,32.1767822 L74.300258,28.5451414 L76.1108903,28.5451414 L76.1108903,27.476772 L74.300258,27.476772 L74.300258,25.0202264 L73.1029283,25.6761452 Z" id="Fill-24" fill="#000000"/>
                    <path d="M78.7068094,30.589644 C79.013646,29.3081936 80.0879446,28.3765666 81.4687093,28.3765666 C82.9569409,28.3765666 83.969724,29.2166614 84.1842872,30.589644 L78.7068094,30.589644 Z M85.3968106,31.1695948 C85.3968106,28.834598 83.6784516,27.3241319 81.4687093,27.3241319 C79.1670643,27.3241319 77.4942861,29.0639843 77.4942861,31.3526591 C77.4942861,33.5961238 79.0903552,35.2596376 81.5305954,35.2596376 C83.2485839,35.2596376 84.4451725,34.4658647 85.151119,33.1380923 L84.1231423,32.6344801 C83.6476938,33.5657366 82.7731354,34.2064618 81.5305954,34.2064618 C79.9956713,34.2064618 78.7990827,33.1836731 78.6456644,31.6728365 L85.3968106,31.6728365 L85.3968106,31.1695948 Z" id="Fill-26" fill="#000000"/>
                    <mask id="mask-2" fill="white">
                        <use xlink:href="#path-1"/>
                    </mask>
                    <g id="Clip-29"/>
                    <polygon id="Fill-28" fill="#000000" mask="url(#mask-2)" points="87.6277868 35.1068493 88.824746 35.1068493 88.824746 23.967347 87.6277868 23.967347"/>
                    <path d="M57.0403663,50.0933709 C58.8658216,50.0933709 60.078345,49.1009695 60.6920182,47.7120522 L59.6028965,47.2547619 C59.1726582,48.2619864 58.3444218,49.0246309 57.071124,49.0246309 C55.41391,49.0246309 54.2017572,47.7279869 54.2017572,46.1256181 C54.2017572,44.5228786 55.3987164,43.2262346 57.0096085,43.2262346 C58.2061971,43.2262346 59.0659325,43.8365726 59.5413809,44.8893779 L60.615309,44.431717 C60.0475872,43.0887511 58.6972097,42.1578652 57.0248021,42.1578652 C54.769479,42.1578652 53.0047981,43.8365726 53.0047981,46.1256181 C53.0047981,48.3227608 54.6927699,50.0933709 57.0403663,50.0933709" id="Fill-30" fill="#000000" mask="url(#mask-2)"/>
                    <path d="M66.2557289,49.024668 C64.6907882,49.024668 63.4782649,47.728024 63.4782649,46.1256551 C63.4782649,44.5229157 64.6907882,43.2262717 66.2557289,43.2262717 C67.8206696,43.2262717 69.048016,44.5229157 69.048016,46.1256551 C69.048016,47.728024 67.8206696,49.024668 66.2557289,49.024668 M66.2557289,42.1579023 C64.0463572,42.1579023 62.2816763,43.8821905 62.2816763,46.1256551 C62.2816763,48.3687492 64.0463572,50.093408 66.2557289,50.093408 C68.4651006,50.093408 70.2449752,48.3687492 70.2449752,46.1256551 C70.2449752,43.8821905 68.4651006,42.1579023 66.2557289,42.1579023" id="Fill-31" fill="#000000" mask="url(#mask-2)"/>
                    <polygon id="Fill-32" fill="#000000" mask="url(#mask-2)" points="72.451234 49.9406197 73.6481932 49.9406197 73.6481932 38.8011174 72.451234 38.8011174"/>
                    <path d="M82.6212735,46.1256181 C82.6212735,47.7279869 81.3939271,49.0246309 79.8289864,49.0246309 C78.2640457,49.0246309 77.0515224,47.7279869 77.0515224,46.1256181 C77.0515224,44.5228786 78.2640457,43.2262346 79.8289864,43.2262346 C81.3939271,43.2262346 82.6212735,44.5228786 82.6212735,46.1256181 M75.8553043,46.1256181 C75.8553043,48.3687121 77.6196147,50.0933709 79.8289864,50.0933709 C82.0383581,50.0933709 83.8182327,48.3687121 83.8182327,46.1256181 C83.8182327,43.8821534 82.0383581,42.1578652 79.8289864,42.1578652 C77.6196147,42.1578652 75.8553043,43.8821534 75.8553043,46.1256181" id="Fill-33" fill="#000000" mask="url(#mask-2)"/>
                    <path d="M89.6058823,49.024668 C88.040571,49.024668 86.8135952,47.728024 86.8135952,46.1256551 C86.8135952,44.5229157 88.040571,43.2262717 89.6058823,43.2262717 C91.2475321,43.2262717 92.4752491,44.5388504 92.4752491,46.1256551 C92.4752491,47.728024 91.2475321,49.024668 89.6058823,49.024668 M89.7593006,52.6262922 C88.4552451,52.6262922 87.6881536,52.0467119 87.3198014,51.1766004 L86.1536001,51.5579227 C86.7061283,52.8401143 87.8871527,53.6639038 89.7593006,53.6639038 C92.0761392,53.6639038 93.5491771,52.1226799 93.5491771,49.8036179 L93.5491771,42.3105794 L92.3677822,42.3105794 L92.3677822,43.5616426 C91.707787,42.6615145 90.5267626,42.1579023 89.5447373,42.1579023 C87.2586565,42.1579023 85.616636,43.943706 85.616636,46.1256551 C85.616636,48.3072336 87.2890437,50.093408 89.5447373,50.093408 C90.5419562,50.093408 91.7385448,49.5894252 92.3829758,48.6741035 L92.3829758,49.8336345 C92.3829758,51.4663906 91.4317082,52.6262922 89.7593006,52.6262922" id="Fill-34" fill="#000000" mask="url(#mask-2)"/>
                    <path d="M97.3002545,43.4393527 L97.3002545,42.3105794 L96.1344236,42.3105794 L96.1344236,49.9407308 L97.3154481,49.9407308 L97.3154481,45.7135751 C97.3154481,44.3250283 98.3437953,43.2262717 99.7397536,43.2262717 C101.274678,43.2262717 102.041399,44.217932 102.041399,45.6980109 L102.041399,49.9407308 L103.238358,49.9407308 L103.238358,45.6980109 C103.238358,43.5004976 101.964689,42.1579023 99.9087361,42.1579023 C98.7577283,42.1579023 97.8375891,42.6615145 97.3002545,43.4393527" id="Fill-35" fill="#000000" mask="url(#mask-2)"/>
                    <path d="M109.338699,43.2104481 C110.826931,43.2104481 111.839714,44.0501724 112.054277,45.4235256 L106.576799,45.4235256 C106.883636,44.1417046 107.957934,43.2104481 109.338699,43.2104481 M109.400585,50.0935192 C111.118574,50.0935192 112.315162,49.2997462 113.021109,47.9719739 L111.993132,47.4683617 C111.517684,48.3996181 110.643125,49.0403433 109.400585,49.0403433 C107.865661,49.0403433 106.669072,48.0175547 106.515654,46.506718 L113.2668,46.506718 L113.2668,46.0034764 C113.2668,43.6684795 111.548441,42.1580134 109.338699,42.1580134 C107.037054,42.1580134 105.364276,43.8978658 105.364276,46.1865407 C105.364276,48.4296348 106.960345,50.0935192 109.400585,50.0935192" id="Fill-36" fill="#000000" mask="url(#mask-2)"/>
                    <polygon id="Fill-37" fill="#000000" mask="url(#mask-2)" points="2.30609191 56.4835023 43.4410944 56.4835023 43.4410944 55.4066097 2.30609191 55.4066097"/>
                    <polygon id="Fill-38" fill="#000000" mask="url(#mask-2)" points="3.26217694 48.6109944 42.4864916 48.6109944 42.4864916 43.0471725 3.26217694 43.0471725"/>
                    <polygon id="Fill-39" fill="#000000" mask="url(#mask-2)" points="3.26217694 53.7056677 42.4864916 53.7056677 42.4864916 50.4001334 3.26217694 50.4001334"/>
                    <path d="M27.9308382,21.5498971 L27.9308382,41.2304257 L33.0510812,41.2304257 L33.0510812,21.5498971 C33.0510812,20.1435627 31.9048909,19.0033017 30.491145,19.0033017 C29.076658,19.0033017 27.9308382,20.1435627 27.9308382,21.5498971" id="Fill-40" fill="#000000" mask="url(#mask-2)"/>
                    <path d="M22.8734449,19.0034869 C21.2944223,19.0034869 20.0148248,20.2767847 20.0148248,21.847284 L20.0148248,41.230611 L25.7328062,41.230611 L25.7328062,21.847284 C25.7328062,20.2767847 24.4532087,19.0034869 22.8738155,19.0034869 L22.8734449,19.0034869 Z" id="Fill-41" fill="#000000" mask="url(#mask-2)"/>
                    <path d="M3.51490949,20.0101555 L3.51490949,41.2304257 L5.53899338,41.2304257 L5.53899338,20.0101555 C5.53899338,19.4542921 5.08577943,19.0033017 4.52695143,19.0033017 C3.96812344,19.0033017 3.51490949,19.4542921 3.51490949,20.0101555" id="Fill-42" fill="#000000" mask="url(#mask-2)"/>
                    <path d="M40.2085635,20.0103408 L40.2085635,41.230611 L42.2326474,41.230611 L42.2326474,20.0103408 C42.2326474,19.4541069 41.7794334,19.0034869 41.2206054,19.0034869 C40.6617774,19.0034869 40.2085635,19.4541069 40.2085635,20.0103408" id="Fill-43" fill="#000000" mask="url(#mask-2)"/>
                    <path d="M6.8460876,21.0044098 L6.8460876,41.2304257 L10.8697974,41.2304257 L10.8697974,21.0044098 C10.8697974,19.899724 9.96892812,19.0033017 8.85757192,19.0033017 C7.74695687,19.0033017 6.8460876,19.899724 6.8460876,21.0044098" id="Fill-44" fill="#000000" mask="url(#mask-2)"/>
                    <path d="M12.6962162,21.5498971 L12.6962162,41.2304257 L17.8168298,41.2304257 L17.8168298,21.5498971 C17.8168298,20.1435627 16.6702689,19.0033017 15.256523,19.0033017 C13.8424066,19.0033017 12.6962162,20.1435627 12.6962162,21.5498971" id="Fill-45" fill="#000000" mask="url(#mask-2)"/>
                    <path d="M34.877463,21.0044098 L34.877463,41.2304257 L38.9011728,41.2304257 L38.9011728,21.0044098 C38.9011728,19.899724 38.0003035,19.0033017 36.8893179,19.0033017 C35.7783323,19.0033017 34.877463,19.899724 34.877463,21.0044098" id="Fill-46" fill="#000000" mask="url(#mask-2)"/>
                    <polygon id="Fill-47" fill="#000000" mask="url(#mask-2)" points="2.53658993 10.1886053 43.2117081 10.1886053 43.2117081 9.26401923 2.53658993 9.26401923"/>
                    <polygon id="Fill-48" fill="#000000" mask="url(#mask-2)" points="20.651066 0.780802773 25.0976026 0.780802773 25.0976026 0 20.651066 0"/>
                    <polygon id="Fill-49" fill="#000000" mask="url(#mask-2)" points="3.26143579 17.6119756 42.4861211 17.6119756 42.4861211 12.4594926 3.26143579 12.4594926"/>
                    <polygon id="Fill-50" fill="#000000" mask="url(#mask-2)" points="39.1918893 6.27010196 35.5372728 6.27010196 35.5372728 3.29475053 35.9515764 3.29475053 35.9515764 2.4616966 9.79523934 2.4616966 9.79523934 3.29475053 10.2110252 3.29475053 10.2110252 6.27010196 6.55529694 6.27010196 6.55529694 7.19505864 39.1918893 7.19505864"/>
                    <path d="M8.9449907,88.5031975 C7.55903799,88.5031975 6.59998835,87.3488546 6.59998835,85.9617901 L6.59998835,85.9388144 C6.59998835,84.5521206 7.5831254,83.4207533 8.9449907,83.4207533 C9.75395722,83.4207533 10.3894944,83.7668709 11.0131731,84.333481 L12.1445404,83.0275726 C11.3941248,82.2882743 10.4813971,81.7802151 8.95684912,81.7802151 C6.47362208,81.7802151 4.74044003,83.6631097 4.74044003,85.9617901 L4.74044003,85.9847658 C4.74044003,88.3075336 6.50845618,90.1444768 8.88681033,90.1444768 C10.4473042,90.1444768 11.3715197,89.5897252 12.2023502,88.6996026 L11.0709829,87.5563769 C10.4354457,88.1348454 9.86883565,88.5031975 8.9449907,88.5031975" id="Fill-51" fill="#000000" mask="url(#mask-2)"/>
                    <path d="M19.6346513,86.5513759 C19.6346513,87.8335674 18.9761385,88.4928214 17.8907226,88.4928214 C16.8053066,88.4928214 16.1464232,87.8102212 16.1464232,86.4935661 L16.1464232,81.9199221 L14.3676604,81.9199221 L14.3676604,86.5402586 C14.3676604,88.9189834 15.6958033,90.1322478 17.8677469,90.1322478 C20.0385787,90.1322478 21.4137847,88.9308418 21.4137847,86.4813371 L21.4137847,81.9199221 L19.6346513,81.9199221 L19.6346513,86.5513759 Z" id="Fill-52" fill="#000000" mask="url(#mask-2)"/>
                    <path d="M29.0314107,84.7037601 C29.0314107,85.3845075 28.5337277,85.8473564 27.6676925,85.8473564 L25.8655834,85.8473564 L25.8655834,83.5245886 L27.6335996,83.5245886 C28.4996347,83.5245886 29.0314107,83.9177693 29.0314107,84.6800433 L29.0314107,84.7037601 Z M30.8324081,84.6111162 L30.8324081,84.5881405 C30.8324081,83.8247548 30.5911634,83.1892177 30.1401729,82.7393389 C29.6083969,82.2075629 28.8120299,81.9192551 27.7833121,81.9192551 L24.0868206,81.9192551 L24.0868206,90.004844 L25.8655834,90.004844 L25.8655834,87.416744 L27.2633945,87.416744 L28.9965766,90.004844 L31.0747645,90.004844 L29.1003378,87.1173189 C30.1279439,86.7363672 30.8324081,85.9162834 30.8324081,84.6111162 L30.8324081,84.6111162 Z" id="Fill-53" fill="#000000" mask="url(#mask-2)"/>
                    <polygon id="Fill-54" fill="#000000" mask="url(#mask-2)" points="33.3899726 90.0046587 35.169106 90.0046587 35.169106 81.9190698 33.3899726 81.9190698"/>
                    <path d="M44.4356081,85.9847658 C44.4356081,87.3714597 43.4428361,88.5031975 42.0101908,88.5031975 C40.577175,88.5031975 39.5606862,87.3488546 39.5606862,85.9617901 L39.5606862,85.9388144 C39.5606862,84.5521206 40.5545699,83.4207533 41.9872151,83.4207533 C43.4187487,83.4207533 44.4356081,84.5758374 44.4356081,85.9617901 L44.4356081,85.9847658 Z M42.0101908,81.7802151 C39.5147348,81.7802151 37.7007673,83.6631097 37.7007673,85.9617901 L37.7007673,85.9847658 C37.7007673,88.2845579 39.4917591,90.1444768 41.9872151,90.1444768 C44.4815595,90.1444768 46.2951564,88.2604705 46.2951564,85.9617901 L46.2951564,85.9388144 C46.2951564,83.640134 44.5045351,81.7802151 42.0101908,81.7802151 L42.0101908,81.7802151 Z" id="Fill-55" fill="#000000" mask="url(#mask-2)"/>
                    <path d="M56.9293048,88.5031975 C55.5433521,88.5031975 54.5843024,87.3488546 54.5843024,85.9617901 L54.5843024,85.9388144 C54.5843024,84.5521206 55.5674395,83.4207533 56.9293048,83.4207533 C57.7382713,83.4207533 58.3738084,83.7668709 58.9974871,84.333481 L60.1288544,83.0275726 C59.3784389,82.2882743 58.4657112,81.7802151 56.9411632,81.7802151 C54.4579361,81.7802151 52.7247541,83.6631097 52.7247541,85.9617901 L52.7247541,85.9847658 C52.7247541,88.3075336 54.4927702,90.1444768 56.8711244,90.1444768 C58.4316182,90.1444768 59.3558337,89.5897252 60.1866642,88.6996026 L59.0552969,87.5563769 C58.4197598,88.1348454 57.8531497,88.5031975 56.9293048,88.5031975" id="Fill-56" fill="#000000" mask="url(#mask-2)"/>
                    <path d="M68.6238552,85.9847658 C68.6238552,87.3714597 67.6299714,88.5031975 66.1984379,88.5031975 C64.7654221,88.5031975 63.7489333,87.3488546 63.7489333,85.9617901 L63.7489333,85.9388144 C63.7489333,84.5521206 64.742817,83.4207533 66.1754622,83.4207533 C67.6069958,83.4207533 68.6238552,84.5758374 68.6238552,85.9617901 L68.6238552,85.9847658 Z M70.4834035,85.9388144 C70.4834035,83.640134 68.6927822,81.7802151 66.1984379,81.7802151 C63.7029819,81.7802151 61.8890144,83.6631097 61.8890144,85.9617901 L61.8890144,85.9847658 C61.8890144,88.2845579 63.6800062,90.1444768 66.1754622,90.1444768 C68.6698066,90.1444768 70.4834035,88.2604705 70.4834035,85.9617901 L70.4834035,85.9388144 Z" id="Fill-57" fill="#000000" mask="url(#mask-2)"/>
                    <polygon id="Fill-58" fill="#000000" mask="url(#mask-2)" points="72.9378368 81.9192922 72.9378368 90.004881 78.7484621 90.004881 78.7484621 88.3876891 74.7165997 88.3876891 74.7165997 81.9192922"/>
                    <polygon id="Fill-59" fill="#000000" mask="url(#mask-2)" points="82.7377084 81.9192922 80.9578338 81.9192922 80.9578338 90.004881 86.7684591 90.004881 86.7684591 88.3876891 82.7377084 88.3876891"/>
                    <polygon id="Fill-60" fill="#000000" mask="url(#mask-2)" points="95.077505 83.5016499 95.077505 81.9192922 88.9785719 81.9192922 88.9785719 90.004881 95.1353148 90.004881 95.1353148 88.423635 90.7465881 88.423635 90.7465881 86.7245459 94.557958 86.7245459 94.557958 85.1418175 90.7465881 85.1418175 90.7465881 83.5016499"/>
                    <path d="M101.435396,88.5031975 C100.048702,88.5031975 99.0896528,87.3488546 99.0896528,85.9617901 L99.0896528,85.9388144 C99.0896528,84.5521206 100.07279,83.4207533 101.435396,83.4207533 C102.243622,83.4207533 102.879159,83.7668709 103.502838,84.333481 L104.634205,83.0275726 C103.883789,82.2882743 102.971062,81.7802151 101.446514,81.7802151 C98.9632865,81.7802151 97.2301045,83.6631097 97.2301045,85.9617901 L97.2301045,85.9847658 C97.2301045,88.3075336 98.9981207,90.1444768 101.376475,90.1444768 C102.936969,90.1444768 103.861184,89.5897252 104.692015,88.6996026 L103.560647,87.5563769 C102.92511,88.1348454 102.3585,88.5031975 101.435396,88.5031975" id="Fill-61" fill="#000000" mask="url(#mask-2)"/>
                    <polygon id="Fill-62" fill="#000000" mask="url(#mask-2)" points="106.406408 83.5598674 108.86703 83.5598674 108.86703 90.0052886 110.645793 90.0052886 110.645793 83.5598674 113.106415 83.5598674 113.106415 81.9196998 106.406408 81.9196998"/>
                    <polygon id="Fill-63" fill="#000000" mask="url(#mask-2)" points="115.408727 90.0046587 117.18749 90.0046587 117.18749 81.9190698 115.408727 81.9190698"/>
                    <path d="M126.454659,85.9847658 C126.454659,87.3714597 125.460775,88.5031975 124.029242,88.5031975 C122.596226,88.5031975 121.579737,87.3488546 121.579737,85.9617901 L121.579737,85.9388144 C121.579737,84.5521206 122.57325,83.4207533 124.006266,83.4207533 C125.4378,83.4207533 126.454659,84.5758374 126.454659,85.9617901 L126.454659,85.9847658 Z M124.029242,81.7802151 C121.533786,81.7802151 119.719818,83.6631097 119.719818,85.9617901 L119.719818,85.9847658 C119.719818,88.2845579 121.51081,90.1444768 124.006266,90.1444768 C126.500611,90.1444768 128.314208,88.2604705 128.314208,85.9617901 L128.314208,85.9388144 C128.314208,83.640134 126.523586,81.7802151 124.029242,81.7802151 L124.029242,81.7802151 Z" id="Fill-64" fill="#000000" mask="url(#mask-2)"/>
                    <polygon id="Fill-65" fill="#000000" mask="url(#mask-2)" points="136.197647 86.8979752 132.408141 81.9192922 130.767974 81.9192922 130.767974 90.004881 132.523761 90.004881 132.523761 84.864627 136.440004 90.004881 137.952693 90.004881 137.952693 81.9192922 136.197647 81.9192922"/>
                    <polygon id="Fill-66" fill="#000000" mask="url(#mask-2)" points="75.1452445 94.4567538 73.2356684 94.4567538 73.2356684 94.8069478 73.7155638 94.8777277 73.7155638 101.988703 73.2356684 102.058371 73.2356684 102.410788 75.63811 102.410788 75.63811 102.058371 75.1452445 101.988703"/>
                    <path d="M50.2488645,102.023537 C49.6993008,102.023537 49.335025,101.778216 49.0307825,101.55587 L49.0307825,98.0176147 C49.3828293,97.8530791 49.7222765,97.7474651 50.0035434,97.7474651 C50.9403585,97.7474651 51.5032628,98.5564316 51.5032628,99.8334351 C51.5032628,101.192706 51.0341141,102.023537 50.2488645,102.023537 M50.7995398,96.81065 C50.2140303,96.81065 49.6640962,97.0218781 49.0307825,97.5499483 L49.0307825,94.4567538 L47.1219476,94.4567538 L47.1219476,94.8069478 L47.601843,94.8777277 L47.601843,101.988703 L47.1219476,102.058371 L47.1219476,102.410788 L49.0307825,102.410788 L49.0307825,102.117292 C49.335025,102.317033 49.7582224,102.516402 50.4134,102.516402 C52.0769138,102.516402 53.0266991,101.438769 53.0266991,99.5643972 C53.0266991,97.9238591 52.0887723,96.81065 50.7995398,96.81065" id="Fill-67" fill="#000000" mask="url(#mask-2)"/>
                    <path d="M83.3827693,102.152497 C82.5756557,102.152497 82.0587027,101.42691 82.0587027,99.680758 C82.0587027,97.9120006 82.5756557,97.1856725 83.3827693,97.1856725 C84.2147115,97.1856725 84.7316644,97.9468348 84.7316644,99.680758 C84.7316644,101.461744 84.2506573,102.152497 83.3827693,102.152497 M83.4416908,96.7646986 C81.63847,96.7646986 80.4893151,97.9468348 80.4893151,99.7159626 C80.4893151,101.82602 81.6028947,102.575324 83.3486763,102.575324 C85.1515266,102.575324 86.3010521,101.42691 86.3010521,99.7159626 C86.3010521,97.8301034 85.2226771,96.7646986 83.4416908,96.7646986" id="Fill-68" fill="#000000" mask="url(#mask-2)"/>
                    <path d="M78.5556516,100.700582 L78.5556516,97.4321053 L79.8437724,97.4321053 L79.8437724,96.916264 L78.5556516,96.916264 L78.5556516,95.3468764 L77.1619168,95.768962 L77.1619168,96.916264 L76.118376,96.916264 L76.118376,97.4321053 L77.125971,97.4321053 L77.125971,101.017054 C77.125971,101.977585 77.3831505,102.481568 78.4848717,102.481568 C78.9766255,102.481568 79.5621349,102.375954 80.2547407,102.129521 L80.2547407,101.75524 C80.0194252,101.814162 79.7737336,101.814162 79.4924667,101.814162 C78.7313045,101.814162 78.5556516,101.544753 78.5556516,100.700582" id="Fill-69" fill="#000000" mask="url(#mask-2)"/>
                    <path d="M92.651606,98.6853919 C92.651606,97.4439637 92.1717106,96.81065 91.0933356,96.81065 C90.2851103,96.81065 89.7103475,97.1975309 89.1137208,97.678538 L89.1137208,96.916264 L87.1919158,96.916264 L87.1919158,97.3035155 L87.6851519,97.3731837 L87.6851519,101.988703 L87.1919158,102.058371 L87.1919158,102.410788 L89.6047335,102.410788 L89.6047335,102.058371 L89.1137208,101.988703 L89.1137208,98.0646778 C89.4657676,97.818245 89.9449219,97.6077581 90.2502762,97.6077581 C90.9065655,97.6077581 91.2219254,97.9938979 91.2219254,98.8617859 L91.2219254,101.988703 L90.74203,102.058371 L90.74203,102.410788 L93.1433598,102.410788 L93.1433598,102.058371 L92.651606,101.988703 L92.651606,98.6853919 Z" id="Fill-70" fill="#000000" mask="url(#mask-2)"/>
                    <polygon id="Fill-71" fill="#000000" mask="url(#mask-2)" points="71.7003738 96.916264 69.7915389 96.916264 69.7915389 97.2683108 70.2825515 97.3383496 70.2825515 101.988703 69.7915389 102.058371 69.7915389 102.410788 72.1928687 102.410788 72.1928687 102.058371 71.7003738 101.988703"/>
                    <path d="M57.3857798,97.3035155 L57.8764219,97.3850422 L56.5297502,100.782479 L55.0889523,97.4091296 L55.5699594,97.3153739 L55.5699594,96.916264 L53.1211959,96.916264 L53.1211959,97.3035155 L53.5543987,97.3972712 L55.7923047,102.539378 L55.7333832,102.680197 C55.4639748,103.325739 55.0300307,104.308506 54.3744825,104.308506 C54.1869713,104.308506 54.0231769,104.262555 53.9175628,104.168799 L53.7070759,103.687792 L53.3898632,103.687792 L53.3898632,104.894015 C53.7300516,104.964054 53.8945871,105 54.315561,105 C55.3583607,105 55.8152804,103.981288 56.3192632,102.750977 L58.5330818,97.3850422 L58.9792548,97.3035155 L58.9792548,96.916264 L57.3857798,96.916264 L57.3857798,97.3035155 Z" id="Fill-72" fill="#000000" mask="url(#mask-2)"/>
                    <path d="M70.2125127,95.2171749 C70.2125127,95.7337573 70.5527011,96.0839513 71.0448255,96.0839513 C71.5247209,96.0839513 71.875656,95.6978115 71.875656,95.1823408 C71.875656,94.7261623 71.5247209,94.3389108 71.0448255,94.3389108 C70.5527011,94.3389108 70.2125127,94.7261623 70.2125127,95.2171749" id="Fill-73" fill="#000000" mask="url(#mask-2)"/>
                    <polygon id="Fill-74" fill="#000000" mask="url(#mask-2)" points="66.0531723 95.0774679 66.6157061 95.1471362 66.6157061 98.0528194 63.2764494 98.0528194 63.2764494 95.1471362 63.7911789 95.0774679 63.7911789 94.6902165 61.2260546 94.6902165 61.2260546 95.0774679 61.7418959 95.1471362 61.7418959 101.94201 61.2260546 102.01279 61.2260546 102.410788 63.7911789 102.410788 63.7911789 102.01279 63.2764494 101.94201 63.2764494 98.8499275 66.6157061 98.8499275 66.6157061 101.94201 66.0531723 102.01279 66.0531723 102.410788 68.6649891 102.410788 68.6649891 102.01279 68.1372894 101.94201 68.1372894 95.1471362 68.6649891 95.0774679 68.6649891 94.6902165 66.0531723 94.6902165"/>
                    <polygon id="Fill-75" fill="#000000" mask="url(#mask-2)" points="0 69.6793286 142.693096 69.6793286 142.693096 68.3074577 0 68.3074577"/>
                    <polygon id="Fill-76" fill="#000000" mask="url(#mask-2)" points="95.6524901 95.7739648 95.1977938 94.7174538 94.6193253 94.7174538 94.6193253 94.8260324 94.7649615 94.8582725 94.7649615 96.2075382 94.6193253 96.235702 94.6193253 96.3494687 95.0892152 96.3494687 95.0892152 96.235702 94.9391321 96.2075382 94.9391321 95.0242903 95.5087068 96.3494687 95.5731869 96.3494687 96.1709253 95.0050204 96.1709253 96.2075382 96.0178776 96.235702 96.0178776 96.3494687 96.6749082 96.3494687 96.6749082 96.235702 96.5259368 96.2075382 96.5259368 94.8582725 96.6749082 94.8260324 96.6749082 94.7174538 96.1223799 94.7174538"/>
                    <polygon id="Fill-77" fill="#000000" mask="url(#mask-2)" points="93.0133619 95.0423744 93.146028 95.0423744 93.1741917 94.8715391 93.5829366 94.8715391 93.5829366 96.2074641 93.403578 96.2356278 93.403578 96.3493946 94.1110068 96.3493946 94.1110068 96.2356278 93.9368363 96.2074641 93.9368363 94.8715391 94.3444694 94.8715391 94.3767095 95.0423744 94.5015935 95.0423744 94.5015935 94.7173796 93.0133619 94.7173796"/>
                </g>
            </g>
        </g>
    </g>
</svg>